<?xml version="1.0" encoding="UTF-8"?>
<svg xmlns="http://www.w3.org/2000/svg" width="145" height="136" viewBox="0 0 145 136" fill="none">
  <path d="M144.96 0.5H0.5V135.36H144.96V0.5Z" fill="white"></path>
  <path d="M128.41 42.33H128.51V42L128.36 41.87V37.72L128.52 37.28V37.12L128.4 37.09V36.91L128.24 36.89V36.31L128.73 35.8V35.6L125.31 34.53V34.27H124.52V33.55L124.6 33.37V32.94L124.45 32.81L124.37 32.56V30.91L124.47 30.79L124.5 30.53L124.57 30.2L124.5 29.82L124.25 29.49C124.25 29.49 124.18 29.24 124.04 29.23C123.89 29.21 123.58 28.95 123.58 28.95L123.43 28.75L123.29 27.9V27.49H123.22V27.9L123.08 28.75L122.93 28.95C122.93 28.95 122.62 29.21 122.47 29.23C122.32 29.25 122.26 29.49 122.26 29.49L122.01 29.82L121.94 30.2L122.01 30.53L122.04 30.79L122.14 30.91V32.56L122.06 32.81L121.91 32.94V33.37L121.99 33.55V34.27H121.2V34.53L117.78 35.6V35.8L118.27 36.31V36.89L118.11 36.91V37.09L117.99 37.12V37.28L118.15 37.72V39.96C117.7 39.94 117.1 39.91 116.4 39.87C115.89 38.67 113.27 33.61 105.48 33.53C97.74 33.45 94.27 38.54 93.52 39.81C92.79 39.84 92.25 39.86 92 39.87V33.65L92.17 33.1H91.87V29.4L92.38 28.63H91.87L91.7 27.35C91.7 27.35 91.4 26.75 91.4 26.2C91.4 25.65 91.66 25.22 91.66 25.22L91.62 24.96L91.11 24.92V23.69L90.81 23.09L90.6 23.47C90.6 23.47 90.3 22.62 89.88 22.36C89.45 22.1 89.41 21.93 89.41 21.93L89.32 20.31L89.02 19.34V19.2H88.98V19.34L88.68 20.31L88.6 21.93C88.6 21.93 88.56 22.1 88.13 22.36C87.7 22.62 87.41 23.47 87.41 23.47L87.2 23.09L86.9 23.69V24.92L86.39 24.96L86.35 25.22C86.35 25.22 86.61 25.65 86.61 26.2C86.61 26.75 86.31 27.35 86.31 27.35L86.14 28.63H85.63L86.14 29.4V30.17H78.8V29.79L79.14 29.41H78.54V28.6L78.45 26.81L78.66 26.47L78.36 25.96L78.27 25.45L78.06 25.54C78.06 25.54 78.06 25.24 77.85 25.07C77.7 24.95 77.57 24.46 77.51 24.17V23.96H77.47V24.17C77.41 24.46 77.28 24.95 77.13 25.07C76.92 25.24 76.92 25.54 76.92 25.54L76.71 25.46L76.62 25.97L76.32 26.48L76.53 26.82L76.45 28.6L74.06 27.49V23.66L73.87 23.31V20.09L74.09 19.83V19.48L73.9 19.29V16.9C73.9 16.9 73.9 16.23 73.84 16.1C73.78 15.97 73.62 15.05 73.42 15.01C73.23 14.98 73.29 15.23 73.29 15.46C73.29 15.69 73.19 16.13 73.19 16.13L72.87 15.49V13.29C72.87 13.29 73.03 13.26 73 12.97C72.97 12.68 72.68 12.24 72.68 12.24C72.68 12.24 72.68 10.9 71.72 10.17L71.59 8.18V6.69H71.49V8.18L71.36 10.17C70.4 10.9 70.4 12.24 70.4 12.24C70.4 12.24 70.11 12.69 70.08 12.97C70.05 13.26 70.21 13.29 70.21 13.29V15.49L69.89 16.13C69.89 16.13 69.79 15.68 69.79 15.46C69.79 15.24 69.85 14.98 69.66 15.01C69.47 15.04 69.31 15.97 69.24 16.1C69.18 16.23 69.18 16.9 69.18 16.9V19.29L68.99 19.48V19.83L69.21 20.09V23.31L69.02 23.66V27.49L66.19 28.8V28.6L66.11 26.81L66.32 26.47L66.02 25.96L65.93 25.45L65.72 25.53C65.72 25.53 65.72 25.23 65.51 25.06C65.36 24.94 65.23 24.45 65.17 24.16V23.95H65.13V24.16C65.07 24.45 64.94 24.94 64.79 25.06C64.58 25.23 64.58 25.53 64.58 25.53L64.37 25.45L64.28 25.96L63.98 26.47L64.19 26.81L64.1 28.6V29.41H63.5L63.84 29.79V30.17H56.6V29.4L57.11 28.63H56.6L56.43 27.35C56.43 27.35 56.13 26.75 56.13 26.2C56.13 25.65 56.39 25.22 56.39 25.22L56.35 24.96L55.84 24.92V23.69L55.54 23.09L55.33 23.47C55.33 23.47 55.03 22.62 54.61 22.36C54.18 22.1 54.14 21.93 54.14 21.93L54.05 20.31L53.75 19.34V19.2H53.71V19.34L53.41 20.31L53.32 21.93C53.32 21.93 53.28 22.1 52.85 22.36C52.42 22.62 52.13 23.47 52.13 23.47L51.92 23.09L51.62 23.69V24.92L51.11 24.96L51.07 25.22C51.07 25.22 51.33 25.65 51.33 26.2C51.33 26.75 51.03 27.35 51.03 27.35L50.86 28.63H50.35L50.86 29.4V33.1H50.56L50.73 33.65V41.06L50.52 41.44V42.34H49.81V36.2L49.51 33.15H48.72L48.63 31.02L48.2 30.9L47.77 28.86L47.47 30.99L47.07 31.11V34.01L46.06 33.4L45.91 31.51L45.48 28.67L45.21 31.51H45.03V28.98H45.15L45 27.06H44.66L44.36 25.11L44.09 27H43.57L42.75 26.02L42.78 25.59V24.71L42.54 23.8L42.3 24.62V24.99H42L40.14 14.27V13.74H40.05V14.27L38.19 24.99H37.89V24.62L37.65 23.8L37.41 24.71V25.59L37.44 26.02L36.62 27H36.1L35.83 25.11L35.53 27.06H35.19L35.04 28.98H35.16V31.51H34.98L34.71 28.67L34.28 31.51L34.13 33.4L33.12 34.01V31.11L32.72 30.99L32.42 28.86L31.99 30.9L31.56 31.02L31.47 33.15H30.68L30.38 36.2V42.34H28.7L28.65 40.14L28.39 39.25L28.13 33.1H27.81V32.18H26.36L26.31 33.13H25.39L25.18 35.55H24.18L23.08 34.39L21.82 35.57L20.69 35.6V36.44L19.09 38.02V36.94H18.59V38.23H16.78L15.6 39.75V42.34H15.08V44.39H129.37V42.34H128.43L128.41 42.33ZM92.52 41.02V42.33H92.23V41.43L92.02 41.05V40.72C92.22 40.7 92.54 40.68 92.96 40.64L92.53 41.02H92.52ZM115.6 39.83C115.05 39.8 114.46 39.78 113.84 39.75L114.41 38.06C115.06 38.83 115.43 39.5 115.6 39.83V39.83ZM114.35 37.98L113.76 39.74C113 39.71 112.2 39.67 111.41 39.64L112.52 36.3C113.28 36.85 113.89 37.44 114.36 37.98H114.35ZM112.44 36.25L111.32 39.64C110.92 39.62 110.53 39.61 110.14 39.6L108.77 35.14L108.97 34.63C110.38 35.02 111.53 35.61 112.45 36.25H112.44ZM102.12 38.51L102.44 39.54C102.2 39.54 101.96 39.55 101.71 39.56L102.12 38.51V38.51ZM101.62 39.56C100.92 39.58 100.21 39.6 99.5 39.61L101.15 35.36L102.08 38.37L101.62 39.55V39.56ZM102.17 38.39L103.46 35.07L104.6 38.78L104.31 39.51C103.75 39.51 103.14 39.53 102.52 39.54L102.16 38.38L102.17 38.39ZM104.65 38.91L104.84 39.51C104.7 39.51 104.56 39.51 104.42 39.51L104.66 38.9L104.65 38.91ZM104.7 38.79L106.13 35.12L107.26 38.8L106.98 39.52C106.82 39.52 106.66 39.52 106.52 39.52C106.07 39.52 105.53 39.52 104.93 39.52L104.71 38.79H104.7ZM107.3 38.93L107.48 39.53C107.34 39.53 107.2 39.53 107.07 39.53L107.3 38.94V38.93ZM107.35 38.81L108.72 35.28L110.05 39.61C109.17 39.58 108.32 39.55 107.57 39.54L107.35 38.81ZM108.89 34.62L108.73 35.02L108.58 34.54C108.68 34.56 108.78 34.59 108.88 34.62H108.89ZM108.49 34.52L108.68 35.15L107.31 38.68L106.18 35L106.48 34.21C107.2 34.27 107.87 34.37 108.49 34.52V34.52ZM106.4 34.21L106.14 34.87L105.93 34.18C106.09 34.18 106.25 34.2 106.4 34.21ZM105.44 34.17C105.58 34.17 105.71 34.17 105.85 34.17L106.1 34.99L104.67 38.66L103.53 34.95L103.81 34.24C104.33 34.19 104.88 34.16 105.45 34.17H105.44ZM103.71 34.25L103.49 34.82L103.33 34.29C103.46 34.27 103.59 34.26 103.72 34.24L103.71 34.25ZM103.24 34.31L103.44 34.95L102.15 38.27L101.22 35.26L101.44 34.69C102 34.53 102.6 34.4 103.24 34.3V34.31ZM101.34 34.73L101.18 35.14L101.08 34.81C101.17 34.78 101.25 34.76 101.34 34.73V34.73ZM101 34.84L101.13 35.27L99.43 39.65C99.12 39.65 98.81 39.67 98.5 39.68L97.56 36.63C98.48 35.95 99.62 35.31 101 34.85V34.84ZM97.49 36.67L98.41 39.67C97.59 39.69 96.8 39.72 96.06 39.74L95.63 38.37C96.1 37.84 96.71 37.24 97.48 36.66L97.49 36.67ZM95.58 38.45L95.98 39.75C95.48 39.77 95.01 39.78 94.57 39.8C94.75 39.52 95.08 39.03 95.57 38.46L95.58 38.45ZM115.47 40.94V42.34H94.22L94.29 40.84L94.1 40.57C96.93 40.37 101.9 40.09 106.45 40.22C110.09 40.32 113.45 40.44 115.8 40.53L115.48 40.94H115.47ZM118.18 41.88L118.03 42.01V42.32H118.13L117.26 42.33V40.93L117.07 40.58C117.5 40.6 117.87 40.61 118.18 40.62V41.88V41.88Z" fill="#231F20"></path>
  <path d="M14.93 49.5H39.75V55.71H23.36V60.56H39.63V66.49H23.36V71.38H39.75V77.59H14.93V49.51V49.5Z" fill="#3B4B9F"></path>
  <path d="M51.96 76.29C48.96 74.82 46.83 72.65 45.56 69.79C44.74 67.91 44.33 65.81 44.33 63.51C44.33 61.21 44.74 59.2 45.56 57.34C46.44 55.46 47.7 53.86 49.36 52.55C51.02 51.24 52.99 50.25 55.29 49.59C57.58 48.93 60.1 48.6 62.83 48.6C65.56 48.6 68.35 48.98 70.79 49.75C73.23 50.52 75.26 51.63 76.88 53.09C79.27 55.24 80.57 58.01 80.78 61.4H71.87C71.74 60.68 71.48 59.98 71.09 59.29C70.71 58.6 70.23 58 69.68 57.5C68.88 56.78 67.91 56.25 66.76 55.91C65.61 55.57 64.33 55.39 62.92 55.39C60.75 55.39 58.92 55.77 57.43 56.52C55.94 57.28 54.87 58.4 54.21 59.88C53.71 61.02 53.45 62.24 53.45 63.54C53.45 64.95 53.68 66.17 54.13 67.2C54.82 68.68 55.93 69.8 57.45 70.56C58.97 71.32 60.78 71.69 62.88 71.69C64.34 71.69 65.68 71.51 66.9 71.13C68.12 70.76 69.14 70.19 69.96 69.42C70.52 68.92 70.97 68.35 71.31 67.71C71.65 67.07 71.85 66.44 71.91 65.8H80.82C80.71 67.44 80.34 68.96 79.69 70.33C79.04 71.71 78.13 72.93 76.97 73.99C75.35 75.48 73.32 76.6 70.86 77.35C68.4 78.1 65.72 78.48 62.81 78.48C58.59 78.48 54.99 77.74 51.99 76.27L51.96 76.29Z" fill="#3B4B9F"></path>
  <path d="M85.97 49.5H94.4V77.58H85.97V49.5Z" fill="#3B4B9F"></path>
  <path d="M110.99 67.76H109.6V77.5899H101.17V49.5099H118.04C120.61 49.5099 122.8 49.96 124.6 50.86C126.4 51.76 127.68 53.0599 128.42 54.7599C128.95 55.8699 129.22 57.19 129.22 58.7C129.22 60.32 128.95 61.7199 128.42 62.9199C127.81 64.2699 126.88 65.3499 125.64 66.1399C124.39 66.9399 122.83 67.44 120.95 67.65L131.41 77.5899H120.87L111 67.76H110.99ZM109.6 55.43V62.7099H115.77C117.02 62.7099 118.04 62.56 118.83 62.25C119.63 61.95 120.17 61.4499 120.46 60.7599C120.67 60.2799 120.78 59.7099 120.78 59.0499C120.78 58.4899 120.69 57.99 120.5 57.54C119.86 56.13 118.29 55.43 115.77 55.43H109.6V55.43Z" fill="#3B4B9F"></path>
  <path d="M14.42 109.68L28.52 98.36C30.01 97.18 31.17 96.16 32.01 95.32C32.84 94.47 33.45 93.68 33.84 92.95C34.22 92.22 34.42 91.45 34.42 90.66C34.42 89.97 34.28 89.27 34 88.58C33.51 87.53 32.64 86.7 31.38 86.1C30.12 85.5 28.59 85.2 26.8 85.2C24.82 85.2 23.15 85.57 21.79 86.32C20.43 87.07 19.47 88.08 18.9 89.36C18.52 90.21 18.32 91.15 18.32 92.17H14.55C14.55 90.66 14.83 89.26 15.4 87.97C16.25 86.07 17.65 84.59 19.6 83.54C21.55 82.49 23.95 81.96 26.8 81.96C29.37 81.96 31.59 82.38 33.46 83.23C35.33 84.08 36.7 85.41 37.54 87.24C37.77 87.73 37.94 88.22 38.06 88.72C38.18 89.22 38.23 89.83 38.23 90.55C38.23 91.68 38.02 92.71 37.61 93.63C37.2 94.55 36.58 95.46 35.76 96.34C34.94 97.23 33.82 98.22 32.41 99.33C29.84 101.38 26.7 103.82 22.97 106.65H38.72V109.85H14.42V109.7V109.68Z" fill="#EF529C"></path>
  <path d="M49.19 108.51C46.89 107.16 45.2 105.31 44.12 102.94C43.25 101.01 42.81 98.78 42.81 96.24C42.81 93.7 43.25 91.46 44.12 89.54C45.2 87.18 46.89 85.32 49.19 83.97C51.49 82.62 54.34 81.95 57.76 81.95C61.18 81.95 64.04 82.62 66.35 83.97C68.66 85.32 70.34 87.17 71.4 89.54C72.27 91.47 72.71 93.7 72.71 96.24C72.71 98.78 72.27 101.02 71.4 102.94C70.35 105.3 68.67 107.16 66.35 108.51C64.04 109.86 61.18 110.53 57.76 110.53C54.34 110.53 51.49 109.86 49.19 108.51V108.51ZM64.04 105.83C65.71 104.88 66.94 103.52 67.74 101.75C68.46 100.11 68.82 98.27 68.82 96.24C68.82 94.21 68.46 92.38 67.74 90.73C66.94 88.96 65.71 87.6 64.04 86.65C62.37 85.7 60.28 85.23 57.76 85.23C55.24 85.23 53.15 85.71 51.48 86.65C49.81 87.6 48.58 88.96 47.78 90.73C47.06 92.27 46.7 94.11 46.7 96.24C46.7 98.37 47.06 100.21 47.78 101.75C48.58 103.52 49.81 104.88 51.48 105.83C53.15 106.78 55.24 107.26 57.76 107.26C60.28 107.26 62.37 106.79 64.04 105.83Z" fill="#EF529C"></path>
  <path d="M76.59 109.68L90.69 98.36C92.18 97.18 93.34 96.16 94.18 95.32C95.01 94.47 95.62 93.68 96.01 92.95C96.39 92.22 96.59 91.45 96.59 90.66C96.59 89.97 96.45 89.27 96.17 88.58C95.68 87.53 94.81 86.7 93.55 86.1C92.29 85.5 90.76 85.2 88.97 85.2C86.99 85.2 85.32 85.57 83.96 86.32C82.6 87.07 81.64 88.08 81.07 89.36C80.69 90.21 80.49 91.15 80.49 92.17H76.72C76.72 90.66 77 89.26 77.57 87.97C78.42 86.07 79.82 84.59 81.77 83.54C83.72 82.49 86.12 81.96 88.97 81.96C91.54 81.96 93.76 82.38 95.63 83.23C97.5 84.08 98.87 85.41 99.71 87.24C99.94 87.73 100.11 88.22 100.23 88.72C100.35 89.22 100.4 89.83 100.4 90.55C100.4 91.68 100.19 92.71 99.78 93.63C99.37 94.55 98.75 95.46 97.93 96.34C97.11 97.23 95.99 98.22 94.58 99.33C92.01 101.38 88.87 103.82 85.14 106.65H100.89V109.85H76.59V109.7V109.68Z" fill="#EF529C"></path>
  <path d="M131.51 102.75H126.31V109.84H122.69V102.75H102.93V102.63L119.41 82.64H126.3V99.59H131.5V102.75H131.51ZM122.69 99.59V83.88H122.61L109.67 99.59H122.69Z" fill="#EF529C"></path>
  <path d="M22.68 118.5V119.06C22.68 119.88 22.54 120.61 22.26 121.24C21.97 121.89 21.53 122.37 20.97 122.7C20.4 123.03 19.7 123.19 18.87 123.19C17.99 123.19 17.24 123.01 16.62 122.64C16 122.27 15.54 121.75 15.23 121.07C14.96 120.46 14.82 119.73 14.82 118.86C14.82 117.99 14.96 117.26 15.23 116.65C15.54 115.97 16.01 115.44 16.62 115.08C17.24 114.71 17.99 114.53 18.89 114.53C19.45 114.53 19.96 114.61 20.42 114.76C20.88 114.92 21.27 115.14 21.6 115.44C21.9 115.7 22.13 116.02 22.31 116.39C22.48 116.76 22.59 117.15 22.62 117.58H20.83C20.77 117.11 20.6 116.76 20.32 116.51C20.16 116.35 19.95 116.24 19.7 116.16C19.45 116.08 19.18 116.04 18.87 116.04C18.4 116.04 17.99 116.14 17.67 116.33C17.34 116.52 17.1 116.8 16.93 117.16C16.83 117.38 16.76 117.62 16.71 117.88C16.66 118.14 16.65 118.47 16.65 118.86C16.65 119.25 16.67 119.57 16.71 119.83C16.75 120.09 16.82 120.33 16.93 120.56C17.1 120.93 17.35 121.21 17.69 121.4C18.02 121.59 18.43 121.68 18.91 121.68C19.39 121.68 19.76 121.6 20.07 121.43C20.39 121.27 20.62 121.02 20.76 120.7C20.82 120.56 20.87 120.42 20.89 120.29C20.92 120.15 20.93 120 20.94 119.82H18.91V118.5H22.67H22.68Z" fill="#231F20"></path>
  <path d="M33.51 114.74H35.24V121.48H37.64V122.97H33.51V114.73V114.74Z" fill="#231F20"></path>
  <path d="M53.56 121.24H50.11L49.55 122.98H47.75L50.55 114.74H53.13L55.93 122.98H54.13L53.56 121.24V121.24ZM53.12 119.89L51.85 115.98H51.83L50.56 119.89H53.13H53.12Z" fill="#231F20"></path>
  <path d="M67.18 122.78C66.65 122.51 66.27 122.13 66.05 121.64C65.9 121.31 65.82 120.89 65.8 120.39H67.7C67.7 120.7 67.74 120.95 67.83 121.15C68.05 121.62 68.51 121.85 69.23 121.85C69.56 121.85 69.85 121.8 70.09 121.69C70.33 121.58 70.49 121.44 70.57 121.24C70.64 121.08 70.67 120.93 70.67 120.78C70.67 120.63 70.64 120.49 70.58 120.35C70.51 120.19 70.39 120.05 70.22 119.94C70.05 119.83 69.87 119.74 69.67 119.68C69.47 119.61 69.18 119.53 68.82 119.43L68.29 119.29C67.75 119.15 67.3 118.97 66.94 118.75C66.58 118.53 66.32 118.24 66.16 117.89C66.04 117.59 65.97 117.28 65.97 116.97C65.97 116.64 66.04 116.31 66.19 115.99C66.39 115.53 66.75 115.17 67.26 114.92C67.77 114.66 68.39 114.54 69.1 114.54C69.81 114.54 70.4 114.67 70.89 114.92C71.38 115.17 71.74 115.54 71.96 116.01C72.11 116.36 72.18 116.76 72.18 117.21H70.39C70.39 116.91 70.35 116.67 70.26 116.47C70.06 116.04 69.65 115.83 69.02 115.83C68.72 115.83 68.47 115.88 68.26 115.99C68.05 116.09 67.9 116.24 67.81 116.42C67.78 116.48 67.76 116.54 67.75 116.6C67.75 116.66 67.74 116.72 67.74 116.79C67.74 116.93 67.76 117.05 67.8 117.16C67.86 117.3 67.97 117.42 68.13 117.52C68.29 117.62 68.47 117.7 68.67 117.76C68.87 117.82 69.15 117.9 69.51 117.99C69.74 118.04 69.88 118.08 69.95 118.11C70.36 118.22 70.72 118.34 71.02 118.46C71.32 118.58 71.58 118.74 71.81 118.92C72.04 119.1 72.22 119.33 72.34 119.59C72.46 119.89 72.53 120.22 72.53 120.59C72.53 120.96 72.46 121.33 72.31 121.66C72.09 122.15 71.71 122.53 71.15 122.79C70.59 123.05 69.92 123.19 69.14 123.19C68.36 123.19 67.67 123.05 67.14 122.78H67.18Z" fill="#231F20"></path>
  <path d="M90.92 118.5V119.06C90.92 119.88 90.78 120.61 90.5 121.24C90.2 121.89 89.77 122.37 89.21 122.7C88.64 123.03 87.94 123.19 87.11 123.19C86.23 123.19 85.48 123.01 84.86 122.64C84.24 122.27 83.78 121.75 83.47 121.07C83.2 120.46 83.06 119.73 83.06 118.86C83.06 117.99 83.2 117.26 83.47 116.65C83.78 115.97 84.25 115.44 84.86 115.08C85.47 114.72 86.24 114.53 87.13 114.53C87.69 114.53 88.2 114.61 88.66 114.76C89.12 114.92 89.51 115.14 89.84 115.44C90.13 115.7 90.37 116.02 90.55 116.39C90.72 116.76 90.83 117.15 90.86 117.58H89.07C89.01 117.11 88.84 116.76 88.56 116.51C88.4 116.35 88.19 116.24 87.94 116.16C87.69 116.08 87.41 116.04 87.11 116.04C86.64 116.04 86.23 116.14 85.91 116.33C85.58 116.52 85.34 116.8 85.18 117.16C85.08 117.38 85.01 117.62 84.96 117.88C84.92 118.14 84.9 118.47 84.9 118.86C84.9 119.25 84.92 119.57 84.96 119.83C85 120.09 85.07 120.33 85.18 120.56C85.35 120.93 85.6 121.21 85.94 121.4C86.28 121.59 86.68 121.68 87.16 121.68C87.64 121.68 88.01 121.6 88.32 121.43C88.63 121.27 88.87 121.02 89.01 120.7C89.07 120.56 89.12 120.42 89.14 120.29C89.17 120.15 89.18 120 89.19 119.82H87.16V118.5H90.92V118.5Z" fill="#231F20"></path>
  <path d="M103.49 122.75C102.92 122.46 102.48 122.04 102.17 121.48C101.95 121.15 101.79 120.76 101.68 120.31C101.57 119.86 101.52 119.37 101.52 118.85C101.52 117.99 101.66 117.25 101.94 116.61C102.24 115.95 102.69 115.44 103.31 115.07C103.93 114.7 104.68 114.52 105.56 114.52C106.44 114.52 107.18 114.7 107.79 115.06C108.4 115.42 108.85 115.93 109.15 116.59C109.44 117.22 109.58 117.97 109.58 118.84C109.58 119.71 109.44 120.47 109.15 121.09C108.85 121.76 108.39 122.27 107.78 122.63C107.17 122.99 106.43 123.17 105.54 123.17C104.75 123.17 104.06 123.02 103.49 122.73V122.75ZM107.46 120.49C107.56 120.27 107.63 120.03 107.68 119.77C107.72 119.51 107.74 119.2 107.74 118.85C107.74 118.5 107.72 118.18 107.68 117.92C107.64 117.66 107.56 117.42 107.46 117.2C107.3 116.83 107.06 116.55 106.74 116.36C106.42 116.17 106.02 116.07 105.54 116.07C105.06 116.07 104.67 116.17 104.35 116.37C104.03 116.57 103.79 116.85 103.63 117.2C103.53 117.43 103.46 117.67 103.41 117.93C103.37 118.19 103.35 118.5 103.35 118.85C103.35 119.2 103.37 119.51 103.41 119.77C103.45 120.03 103.52 120.27 103.63 120.5C103.79 120.87 104.03 121.15 104.35 121.34C104.67 121.53 105.07 121.63 105.55 121.63C106.49 121.63 107.13 121.25 107.46 120.49Z" fill="#231F20"></path>
  <path d="M130.85 114.74L128.54 122.98H126.71L125.22 117.07L123.73 122.98H121.92L119.58 114.74H121.31L122.86 120.56L124.32 114.74H126.16L127.59 120.54L129.13 114.74H130.86H130.85Z" fill="#231F20"></path>
</svg>
