<?xml version="1.0" encoding="UTF-8" standalone="no"?>
<!-- Created with Inkscape (http://www.inkscape.org/) -->

<svg
   width="75.470001mm"
   height="10.767mm"
   viewBox="0 0 75.470001 10.767001"
   version="1.1"
   id="svg794"
   inkscape:version="1.2 (dc2aeda, 2022-05-15)"
   sodipodi:docname="school_logo.svg"
   xmlns:inkscape="http://www.inkscape.org/namespaces/inkscape"
   xmlns:sodipodi="http://sodipodi.sourceforge.net/DTD/sodipodi-0.dtd"
   xmlns="http://www.w3.org/2000/svg"
   xmlns:svg="http://www.w3.org/2000/svg">
  <sodipodi:namedview
     id="namedview796"
     pagecolor="#ffffff"
     bordercolor="#000000"
     borderopacity="0.25"
     inkscape:showpageshadow="2"
     inkscape:pageopacity="0.0"
     inkscape:pagecheckerboard="0"
     inkscape:deskcolor="#d1d1d1"
     inkscape:document-units="mm"
     showgrid="false"
     inkscape:zoom="5.1754899"
     inkscape:cx="70.138288"
     inkscape:cy="72.843346"
     inkscape:window-width="2560"
     inkscape:window-height="1440"
     inkscape:window-x="0"
     inkscape:window-y="0"
     inkscape:window-maximized="0"
     inkscape:current-layer="layer1" />
  <defs
     id="defs791" />
  <g
     inkscape:label="Layer 1"
     inkscape:groupmode="layer"
     id="layer1">
    <g
       id="g1775"
       transform="translate(-35.231785,-64.788492)">
      <path
         d="m 48.809814,64.916604 v 0.124771 c -0.443488,0.0074 -0.602068,0.185866 -0.602068,0.608678 v 1.785659 c 0,0.820116 -0.522076,1.700037 -1.957637,1.700037 -1.26307,0 -1.910875,-0.720651 -1.910875,-1.666563 v -1.931307 c 0,-0.42348 -0.119007,-0.489115 -0.568927,-0.496504 v -0.124771 h 1.699948 v 0.124771 h -0.05983 c -0.363319,0 -0.522233,0.100066 -0.522233,0.483394 v 1.838519 c 0,0.89254 0.522233,1.42826 1.507717,1.42826 0.747337,0 1.507984,-0.310815 1.507984,-1.43418 v -1.541525 c 0,-0.63494 -0.09955,-0.747092 -0.648228,-0.774468 v -0.124771 h 1.554145"
         fill="#003660"
         id="path34"
         style="stroke-width:0.0222568" />
      <path
         d="m 49.556795,68.454559 c 0,0.363497 0.086,0.450276 0.443131,0.450276 v 0.125284 h -1.329128 v -0.125284 c 0.290718,0 0.442865,-0.159269 0.442865,-0.417136 v -1.388532 c 0,-0.244824 -0.02669,-0.291162 -0.198308,-0.324125 l -0.225172,-0.04634 v -0.105809 l 0.760803,-0.277942 h 0.105809 v 0.515466 c 0.443131,-0.277497 0.813328,-0.521987 1.137542,-0.521987 0.449831,0 0.70752,0.330379 0.70752,0.991382 0,0.879587 -0.04618,1.051364 -0.05261,1.309943 -0.0071,0.178299 0.09886,0.265078 0.370107,0.265078 h 0.145715 v 0.125284 h -1.421561 v -0.125284 c 0.191186,-0.0073 0.303605,-0.05331 0.376273,-0.126062 0.125639,-0.125973 0.138949,-0.608945 0.138949,-1.487908 0,-0.529288 -0.257622,-0.694989 -0.522789,-0.694989 -0.211439,0 -0.535119,0.185443 -0.879141,0.42339 v 1.435293"
         fill="#003660"
         id="path36"
         style="stroke-width:0.0222568" />
      <path
         d="m 52.775499,64.817072 c 0.158757,0 0.290473,0.112151 0.290473,0.251679 0,0.138504 -0.131716,0.251167 -0.290473,0.251167 -0.159269,0 -0.284553,-0.112663 -0.284553,-0.251167 0,-0.139528 0.125284,-0.251679 0.284553,-0.251679 z m 0.270998,3.710088 c 0,0.231871 0.125818,0.377675 0.476183,0.377675 v 0.125284 h -1.468166 v -0.125284 c 0.403225,0 0.548851,-0.132494 0.548851,-0.483572 v -1.328884 c 0,-0.258289 -0.03294,-0.290896 -0.20474,-0.32437 l -0.310993,-0.05965 v -0.105541 l 0.8594,-0.297862 h 0.09947 v 2.222202"
         fill="#003660"
         id="path38"
         style="stroke-width:0.0222568" />
      <path
         d="M 54.869637,69.089321 53.910771,66.89416 c -0.09929,-0.231514 -0.185354,-0.311238 -0.291252,-0.331247 l -0.204828,-0.03269 v -0.119185 h 1.349226 v 0.119185 c -0.403737,0.01304 -0.529377,0.06566 -0.37053,0.376384 l 0.70151,1.647155 0.673979,-1.527614 c 0.119274,-0.271688 0.05954,-0.46323 -0.422544,-0.495925 v -0.119185 h 1.150585 v 0.119185 c -0.25119,0.04618 -0.397506,0.191364 -0.522967,0.482615 l -0.912171,2.076488 h -0.192142"
         fill="#003660"
         id="path40"
         style="stroke-width:0.0222568" />
      <path
         d="m 58.273294,67.178201 c -0.07256,-0.429666 -0.336744,-0.714486 -0.654793,-0.714486 -0.218205,0 -0.548562,0.0992 -0.700976,0.714486 z m -1.376023,0.171778 c -0.01244,0.09973 -0.02557,0.191719 -0.02557,0.277608 0,0.687867 0.482259,1.151186 1.004536,1.151186 0.33118,0 0.588913,-0.132339 0.840415,-0.430267 l 0.07256,0.0791 c -0.277765,0.351167 -0.694188,0.68188 -1.177159,0.68188 -0.648006,0 -1.150274,-0.588669 -1.150274,-1.356104 0,-0.701154 0.469217,-1.41495 1.276247,-1.41495 0.891827,0 0.872909,0.641194 1.090803,0.859489 v 0.152058 h -1.931552"
         fill="#003660"
         id="path42"
         style="stroke-width:0.0222568" />
      <path
         d="m 60.032468,68.54708 c 0,0.270976 0.09949,0.357755 0.43,0.357755 h 0.251279 v 0.125284 h -1.567543 v -0.125284 c 0.337412,-0.0073 0.443132,-0.145804 0.443132,-0.496793 v -1.527191 l -0.443132,-0.159269 v -0.112241 l 0.753613,-0.264388 h 0.132651 v 0.700754 h 0.01313 c 0.330512,-0.542442 0.409746,-0.667636 0.628308,-0.667636 0.07968,0 0.09904,0.0066 0.224793,0.05947 0.06655,0.02617 0.185621,0.05322 0.343867,0.09878 l -0.158246,0.397306 c -0.09949,-0.0132 -0.225461,-0.0465 -0.350989,-0.10641 -0.07233,-0.03312 -0.151791,-0.06564 -0.231693,-0.06564 -0.118183,0 -0.191185,0.08017 -0.257733,0.172045 -0.08569,0.118606 -0.158245,0.23196 -0.211439,0.330379 v 1.283079"
         fill="#003660"
         id="path44"
         style="stroke-width:0.0222568" />
      <path
         d="m 61.614923,68.361637 c 0.07879,0.397394 0.330067,0.621965 0.627862,0.621965 0.264633,0 0.469618,-0.198308 0.469618,-0.436522 0,-0.139038 -0.03316,-0.224926 -0.211884,-0.403759 -0.469618,-0.469306 -0.991761,-0.515734 -0.991761,-1.064496 0,-0.436455 0.344312,-0.740393 0.846424,-0.740393 0.178499,0 0.363675,0.03964 0.529043,0.105719 l 0.01335,0.601556 H 62.78496 C 62.73844,66.708361 62.520772,66.4971 62.255917,66.4971 c -0.217894,0 -0.402847,0.152236 -0.402847,0.370108 0,0.582503 1.229463,0.681345 1.229463,1.487908 0,0.430178 -0.357444,0.75437 -0.820162,0.75437 -0.125528,0 -0.217671,-0.02016 -0.290673,-0.04625 -0.07278,-0.02016 -0.126195,-0.03964 -0.178276,-0.03964 -0.03984,0 -0.07946,0.02609 -0.112619,0.07903 h -0.09949 l -0.07256,-0.740994 h 0.106164"
         fill="#003660"
         id="path46"
         style="stroke-width:0.0222568" />
      <path
         d="m 64.122813,64.817072 c 0.158913,0 0.290673,0.112151 0.290673,0.251679 0,0.138504 -0.13176,0.251167 -0.290673,0.251167 -0.158913,0 -0.284219,-0.112663 -0.284219,-0.251167 0,-0.139528 0.125306,-0.251679 0.284219,-0.251679 z M 64.3939,68.52716 c 0,0.231871 0.125751,0.377675 0.476295,0.377675 v 0.125284 h -1.468501 v -0.125284 c 0.40396,0 0.549297,-0.132494 0.549297,-0.483572 v -1.328884 c 0,-0.258289 -0.03316,-0.290896 -0.204985,-0.32437 l -0.311372,-0.05965 v -0.105541 l 0.860001,-0.297862 h 0.09926 v 2.222202"
         fill="#003660"
         id="path48"
         style="stroke-width:0.0222568" />
      <path
         d="m 66.601325,66.411033 -0.10572,0.290985 h -0.711771 v 1.540857 c 0,0.416357 0.297796,0.555796 0.436455,0.555796 0.145782,0 0.277542,-0.11302 0.40307,-0.331581 l 0.106387,0.09955 c -0.15869,0.344356 -0.417091,0.542842 -0.721564,0.542842 -0.389493,0 -0.667479,-0.324192 -0.667479,-0.767079 v -1.640385 h -0.30425 v -0.106142 c 0.258178,-0.125195 0.482971,-0.429489 0.634762,-0.839859 h 0.112619 v 0.655016 h 0.817491"
         fill="#003660"
         id="path50"
         style="stroke-width:0.0222568" />
      <path
         d="m 69.070266,67.144972 c 0.19853,-0.502602 0.07256,-0.601711 -0.317159,-0.614754 v -0.119185 h 1.097481 v 0.119185 c -0.271087,0.0327 -0.422878,0.218317 -0.548629,0.529043 l -1.124856,2.804083 c -0.19764,0.489226 -0.350099,0.707609 -0.581347,0.707609 -0.159135,0 -0.271087,-0.09947 -0.271087,-0.231603 0,-0.271177 0.383261,-0.20474 0.548629,-0.37062 0.07278,-0.07296 0.172045,-0.244668 0.224793,-0.37654 l 0.198531,-0.496703 -1.024701,-2.175064 C 67.145725,66.649336 67.027319,66.536316 66.74911,66.530218 v -0.119185 h 1.329618 v 0.119185 c -0.403515,0.0061 -0.450032,0.125283 -0.317381,0.403404 l 0.747159,1.613458 0.56176,-1.402108"
         fill="#003660"
         id="path52"
         style="stroke-width:0.0222568" />
      <path
         d="m 45.2056,71.510344 c -0.41678,0 -0.786887,0.800108 -0.786887,1.461467 0,0.555035 0.237679,0.826549 0.462695,0.826549 0.529021,0 0.840103,-0.859667 0.840103,-1.467988 0,-0.463475 -0.224993,-0.820028 -0.515911,-0.820028 z m 0.337323,-0.244913 c 0.191631,0 0.601734,0.26421 0.601734,0.972775 0,1.256211 -1.249939,1.805065 -1.560666,1.805065 -0.310726,0 -0.588513,-0.49582 -0.588513,-1.045108 0,-1.071017 1.150652,-1.732732 1.547445,-1.732732"
         fill="#003660"
         id="path54"
         style="stroke-width:0.0222568" />
      <path
         d="m 46.380601,71.563204 0.02001,-0.125617 c 0.158825,-0.01992 0.317582,-0.04652 0.48295,-0.08642 0.09911,-0.542086 0.297417,-1.110501 0.667702,-1.480853 0.231337,-0.231359 0.522678,-0.357154 0.780366,-0.357154 0.258223,0 0.469395,0.145359 0.469395,0.317247 0,0.105542 -0.07946,0.192054 -0.185443,0.192054 -0.217604,0 -0.396615,-0.271354 -0.588224,-0.271354 -0.258134,0 -0.469239,0.290984 -0.562072,0.727528 l -0.17841,0.866367 h 0.568593 l -0.06617,0.218205 H 47.24679 l -0.336967,1.931213 c -0.257956,1.481202 -1.012082,2.009887 -1.633624,2.009887 -0.277341,0 -0.509034,-0.138496 -0.509034,-0.30403 0,-0.105893 0.105987,-0.198486 0.218561,-0.198486 0.244313,0 0.376451,0.291163 0.627797,0.291163 0.152414,0 0.284218,-0.07294 0.403759,-0.191789 0.33038,-0.330635 0.455997,-1.46086 0.482438,-1.6197 l 0.337323,-1.918258 h -0.456441"
         fill="#003660"
         id="path56"
         style="stroke-width:0.0222568" />
      <path
         d="m 52.695174,73.652734 c -0.654393,0.337677 -1.494162,0.416533 -1.772015,0.416533 -1.44818,0 -2.122827,-1.117264 -2.122827,-2.083096 0,-0.991716 0.694656,-2.235067 2.308181,-2.235067 0.707342,0 1.177004,0.224837 1.315574,0.224837 0.05983,0 0.112953,-0.01286 0.152414,-0.046 h 0.0925 v 1.071284 h -0.13196 c -0.179189,-0.826616 -0.740994,-1.084572 -1.355926,-1.084572 -1.163872,0 -1.75924,0.965721 -1.75924,2.030395 0,1.355324 0.952433,1.956775 1.712813,1.956775 0.30445,0 0.641261,-0.0659 1.011992,-0.251085 v -0.833226 c 0,-0.376473 -0.132161,-0.502535 -0.528865,-0.502535 h -0.245091 v -0.118673 h 1.785414 v 0.118673 c -0.330379,0.02001 -0.462963,0.132517 -0.462963,0.416535 v 0.919226"
         fill="#003660"
         id="path58"
         style="stroke-width:0.0222568" />
      <path
         d="m 54.152813,73.441382 c 0,0.270907 0.125885,0.396535 0.383596,0.396535 h 0.112752 v 0.125978 h -1.487819 v -0.125978 c 0.422878,0 0.548518,-0.125628 0.548518,-0.443134 v -3.193581 c 0,-0.185977 -0.01992,-0.244646 -0.204829,-0.265256 l -0.297261,-0.03321 v -0.111729 l 0.846112,-0.271243 h 0.09893 v 3.921615"
         fill="#003660"
         id="path60"
         style="stroke-width:0.0222568" />
      <path
         d="m 56.284342,72.733508 c -0.125817,0.07287 -0.231537,0.119541 -0.390183,0.185621 -0.403581,0.165012 -0.555461,0.231515 -0.555461,0.503128 0,0.237606 0.191252,0.389319 0.390272,0.389319 0.10563,0 0.185176,-0.03278 0.555372,-0.290818 z m -1.309231,-0.601355 c -0.01313,-0.04035 -0.02001,-0.05974 -0.02001,-0.09286 0,-0.231782 0.548763,-0.767435 0.978608,-0.767435 0.198819,0 0.509034,0.09286 0.694032,0.351256 0.09964,0.139016 0.09964,0.224637 0.09964,0.568237 v 0.886175 c 0,0.529125 0,0.648234 0.172312,0.648234 0.07216,0 0.158335,-0.007 0.323502,-0.145452 l 0.03314,0.09937 c -0.356642,0.290729 -0.542352,0.363584 -0.65466,0.363584 -0.271176,0 -0.297528,-0.298031 -0.304049,-0.402969 -0.456175,0.376192 -0.588402,0.402969 -0.76768,0.402969 -0.383061,0 -0.614487,-0.218481 -0.614487,-0.542248 0,-0.403061 0.357065,-0.542076 0.780277,-0.647974 0.13886,-0.03354 0.357065,-0.112574 0.588602,-0.251767 V 72.07884 c 0,-0.185176 0,-0.291341 -0.112775,-0.423145 -0.08544,-0.106143 -0.224303,-0.191609 -0.370107,-0.191609 -0.218116,0 -0.41017,0.185177 -0.41017,0.323413 0,0.04026 0.0068,0.06644 0.03321,0.126063 l -0.449386,0.218583"
         fill="#003660"
         id="path62"
         style="stroke-width:0.0222568" />
      <path
         d="m 57.581777,73.295669 c 0.08012,0.396798 0.330736,0.622234 0.629198,0.622234 0.26441,0 0.469395,-0.19918 0.469395,-0.436441 0,-0.139365 -0.03316,-0.225165 -0.212107,-0.403931 -0.468949,-0.46895 -0.991627,-0.515978 -0.991627,-1.064585 0,-0.436611 0.343734,-0.741083 0.846513,-0.741083 0.178277,0 0.363676,0.04017 0.528821,0.105898 l 0.01313,0.601978 h -0.112174 c -0.04652,-0.337413 -0.264411,-0.54903 -0.529266,-0.54903 -0.218116,0 -0.403292,0.152326 -0.403292,0.370375 0,0.58188 1.23013,0.681079 1.23013,1.48842 0,0.429219 -0.35722,0.753767 -0.819938,0.753767 -0.125306,0 -0.218339,-0.01974 -0.291119,-0.0459 -0.07233,-0.02061 -0.12575,-0.03982 -0.178499,-0.03982 -0.04006,0 -0.07901,0.02574 -0.112174,0.07903 h -0.09993 l -0.0722,-0.740907 h 0.105141"
         fill="#003660"
         id="path64"
         style="stroke-width:0.0222568" />
      <path
         d="m 60.537696,71.398014 c -0.251501,0 -0.64144,0.138771 -0.64144,0.753859 0,0.389849 0.198531,0.912882 0.701311,0.912882 0.383261,0 0.634762,-0.317581 0.634762,-0.774201 0,-0.568326 -0.291118,-0.89254 -0.694633,-0.89254 z m 0.185176,3.921107 c 0.562206,0 1.091026,-0.370193 1.091026,-0.78681 0,-0.244477 -0.20454,-0.370367 -0.443132,-0.389755 -0.1716,-0.02026 -1.00467,-0.02721 -1.196523,-0.05329 -0.185399,0.217872 -0.43,0.310812 -0.43,0.568069 0,0.311768 0.436232,0.661789 0.978629,0.661789 z m 1.50144,-3.431547 c -0.09927,-0.0063 -0.410414,-0.03363 -0.661248,-0.08006 0.03939,0.07371 0.112174,0.211617 0.112174,0.42339 0,0.48956 -0.422655,0.959489 -1.157128,0.959489 -0.125528,0 -0.184954,-0.01358 -0.304472,-0.05313 -0.105497,0.112508 -0.402848,0.185007 -0.402848,0.336891 0,0.166143 0.283997,0.231698 0.945245,0.23813 0.747604,0.0064 1.005337,0.03999 1.203867,0.238392 0.158468,0.1591 0.198085,0.323763 0.198085,0.462434 0,0.430007 -0.582014,1.091189 -1.805467,1.091189 -0.687511,0 -1.018024,-0.30403 -1.018024,-0.628231 0,-0.383234 0.403515,-0.442613 0.707319,-0.812544 -0.356775,-0.03373 -0.628085,-0.258127 -0.628085,-0.46974 0,-0.304285 0.443577,-0.317684 0.674602,-0.489639 -0.403292,-0.158669 -0.634985,-0.442976 -0.634985,-0.820206 0,-0.569016 0.509234,-1.012081 1.163805,-1.012081 0.30425,0 0.562429,0.09286 0.740928,0.264922 0.297127,0 0.575114,-0.03356 0.866232,-0.06626 v 0.417047"
         fill="#003660"
         id="path66"
         style="stroke-width:0.0222568" />
      <path
         d="m 63.879547,73.884345 c 0.390161,0 0.832625,-0.397059 0.832625,-1.058071 0,-0.753858 -0.462273,-1.395565 -1.017801,-1.395565 -0.436678,0 -0.840193,0.450521 -0.840193,1.018781 0,0.800286 0.456931,1.434855 1.025369,1.434855 z m -0.09281,-2.612482 c 0.80703,0 1.421538,0.601733 1.421538,1.389311 0,0.780208 -0.614508,1.382097 -1.40173,1.382097 -0.819716,0 -1.448024,-0.595281 -1.448024,-1.36861 0,-0.912526 0.740705,-1.402798 1.428216,-1.402798"
         fill="#003660"
         id="path68"
         style="stroke-width:0.0222568" />
      <path
         d="m 68.277258,74.023536 -0.787221,-1.864964 -0.793676,1.864964 h -0.184508 l -0.986197,-2.222452 c -0.09214,-0.204918 -0.185399,-0.304027 -0.489203,-0.33699 v -0.119095 h 1.283101 v 0.119095 c -0.390383,0.01956 -0.416869,0.132072 -0.277541,0.44262 l 0.713774,1.594309 0.648339,-1.534505 c -0.145559,-0.336722 -0.258178,-0.456174 -0.489649,-0.48286 l -0.15869,-0.01956 v -0.119095 h 1.36879 v 0.119095 c -0.323836,0.0064 -0.422656,0.105542 -0.284219,0.435921 l 0.647894,1.57414 0.634985,-1.547013 c 0.145559,-0.350811 0.03316,-0.463052 -0.383706,-0.463052 v -0.119095 h 1.111057 v 0.119095 c -0.251056,0.02573 -0.40997,0.151791 -0.542397,0.475738 l -0.852656,2.083704 h -0.178277"
         fill="#003660"
         id="path70"
         style="stroke-width:0.0222568" />
      <path
         d="m 35.265445,64.917138 6.917599,-5.34e-4 c 0,0 0.0083,3.277751 -1.78e-4,5.657755 0.0013,1.752963 -2.164558,3.686262 -3.460591,3.753206 -1.436942,-0.114848 -3.45683,-2.124658 -3.45683,-3.731907 v -5.67852"
         fill="#003660"
         id="path72"
         style="stroke-width:0.0222568" />
      <path
         d="m 38.673066,73.395304 h 0.219872 v -6.093565 h -0.219872 z"
         fill="#99dbf9"
         id="path74"
         style="stroke-width:0.0222568" />
      <path
         d="m 40.235401,67.264357 c 0.196304,-0.0011 0.513819,8.68e-4 0.719783,8.68e-4 0.0639,0 0.168662,-0.01896 0.10997,0.122145 -0.05208,0.124838 -0.12693,0.298997 -0.159269,0.373847 -0.108501,0 -0.54894,3.56e-4 -0.550075,-0.0019 -0.03503,-0.08146 -0.08538,-0.197618 -0.149276,-0.345247 -0.03392,-0.07868 -0.05077,-0.149699 0.02887,-0.149699 z m -0.09964,2.13578 h 1.086063 c 0.320541,0 0.349765,0.04398 0.372377,0.112753 -0.01349,-0.106766 -0.08259,-0.653614 -0.130758,-1.04954 -0.01262,-0.103382 -0.04888,-0.38749 -0.192143,-0.556864 -0.04529,-0.05442 -0.06713,-0.08173 -0.164499,-0.123369 0.0076,-0.02154 0.09615,-0.241864 0.161895,-0.419829 0.03381,-0.09094 -0.0027,-0.181437 -0.07218,-0.223791 -0.06043,-0.03632 -0.13797,-0.03799 -0.193434,-0.03799 -0.372199,0 -0.659623,7.13e-4 -0.774379,7.13e-4 -0.198931,0 -0.291252,0.126485 -0.230468,0.279255 0.04616,0.115802 0.122835,0.313242 0.157867,0.403381 -0.244646,0.08173 -0.325505,0.415667 -0.361049,0.705005 -0.05905,0.487646 -0.139105,1.138144 -0.144847,1.177182 -0.0086,0.0619 -0.01896,0.113287 0.08277,0.118072 0.192988,0.01233 0.418338,0.01373 0.797837,0.0039 0.03661,0.02061 0.084,0.03347 0.146071,0.0314 0.06154,-9.57e-4 0.106499,-0.01732 0.138749,-0.04008 0.154751,-0.0056 0.330802,-0.01278 0.53207,-0.02088 -0.17683,-0.0042 -0.342531,-0.0092 -0.495903,-0.01346 0.05529,-0.0686 0.04965,-0.162497 0.0446,-0.180836 -0.02295,0.254305 -0.353237,0.229956 -0.27151,-0.03982 -0.03539,0 -0.127376,0 -0.185978,0.04781 -0.01565,0.03939 -0.01017,0.105296 0.02749,0.159803 -0.21431,-0.0094 -0.390984,-0.01732 -0.518604,-0.02453 -0.06564,-0.0032 -0.09728,-0.0505 -0.06408,-0.09432 0.138414,-0.180569 0.146316,-0.213954 0.252035,-0.213954"
         fill="#ffcf37"
         id="path76"
         style="stroke-width:0.0222568" />
      <path
         d="m 38.731579,73.369223 c 0,0.07146 -0.04772,0.129715 -0.106922,0.129715 -0.05896,0 -0.10721,-0.05825 -0.10721,-0.129715 v -0.604667 c 0,-0.07095 0.04825,-0.129378 0.10721,-0.129378 0.0592,0 0.106922,0.05842 0.106922,0.129378 v 0.604667"
         fill="#ffffff"
         id="path78"
         style="stroke-width:0.0222568" />
      <path
         d="m 37.240559,66.188822 c 0.03425,-0.01436 0.08311,-0.01071 0.128324,-0.01071 -0.04999,-0.04164 -0.09529,-0.05782 -0.122673,-0.06512 -0.0639,-0.241775 -0.414098,-0.17614 -0.448614,0.03826 -0.01243,0.07754 -0.287337,0.111551 -0.602497,0.532938 -0.145365,0.193634 -0.345936,0.361517 -0.406706,0.400199 -0.06121,0.03799 0.08781,0.02686 0.156665,-0.04601 0.06451,0.06512 0.191183,-0.130313 0.382017,-0.163186 0.05051,-0.0081 0.684482,-0.12328 0.517296,-0.486243 0.223522,0.287334 -0.148929,0.493899 -0.383321,0.516846 0.0206,0.01079 0.14241,0.02034 0.156407,0.02591 0.03504,0.01235 -0.01035,0.05486 0.01808,0.07104 0.06834,0.03773 0.203788,0.165613 0.203788,0.165613 0,0 0.07738,-0.02624 0.04225,-0.06112 -0.104502,-0.06886 -0.132757,-0.08989 -0.159534,-0.132918 -0.0018,-0.0025 -0.03565,-0.06626 0.03321,-0.08435 0.09937,-0.008 0.424443,-0.123436 0.369148,-0.531024 -0.0089,-0.06441 0.03634,-0.13423 0.116154,-0.17013"
         fill="#e2a035"
         id="path80"
         style="stroke-width:0.0222568" />
      <path
         d="m 37.193174,66.121095 c 0,0.02139 -0.01591,0.03815 -0.0353,0.03815 -0.01904,0 -0.03504,-0.01676 -0.03504,-0.03815 0,-0.02079 0.016,-0.03835 0.03504,-0.03835 0.01939,0 0.0353,0.01756 0.0353,0.03835"
         fill="#003660"
         id="path82"
         style="stroke-width:0.0222568" />
      <path
         d="m 38.830866,73.468508 h 0.117196 v -0.856101 h -0.117196 z"
         fill="#ffffff"
         id="path84"
         style="stroke-width:0.0222568" />
      <path
         d="m 39.052388,73.602049 c 0.03479,-0.0366 0.05591,-0.0859 0.05591,-0.140496 0,-0.112067 -0.09094,-0.203431 -0.203604,-0.203431 h -0.346471 c -0.112486,0 -0.203961,0.09136 -0.203961,0.203431 0,0.05277 0.02016,0.09998 0.05261,0.136149 -0.04182,0.03773 -0.116692,0.10998 -0.137458,0.134671 0.23265,0.102675 0.67438,0.09433 0.923388,-0.0015 -0.02339,-0.02017 -0.103026,-0.0932 -0.140417,-0.128846"
         fill="#ffcf37"
         id="path86"
         style="stroke-width:0.0222568" />
      <path
         d="m 38.726193,66.575088 c 0,0.0051 -5.12e-4,0.0038 -5.12e-4,-0.0015 -0.150411,-0.134409 -0.63345,-0.191809 -0.943998,-0.112508 0.02025,0.03773 0.04529,0.158312 0.05858,0.206476 0.458533,-0.15257 0.885418,0.07042 0.885418,0.07042 0,-0.001 0,-0.0029 1.78e-4,-0.0044 0,0.0015 0,0.0038 3.34e-4,0.005 0,0 0.426973,-0.222656 0.885751,-0.06982 0.0126,-0.04825 0.03817,-0.168573 0.05869,-0.205786 -0.311172,-0.08008 -0.793943,-0.02286 -0.944443,0.112152"
         fill="#99dbf9"
         id="path88"
         style="stroke-width:0.0222568" />
      <path
         d="m 38.865119,72.022939 h 0.06825 V 67.30137 h -0.06825 z"
         fill="#ffffff"
         id="path90"
         style="stroke-width:0.0222568" />
      <path
         d="m 38.520919,71.682656 h 0.218916 v -4.380931 h -0.218916 z"
         fill="#ffffff"
         id="path92"
         style="stroke-width:0.0222568" />
      <path
         d="m 38.949027,68.987074 c 0.01427,-0.05121 0.02094,-0.177876 0,-0.217693 -0.102581,0 -0.262207,7.79e-4 -0.35524,-0.0015 0.212997,0.07765 0.35524,0.219185 0.35524,0.219185"
         fill="#003660"
         id="path94"
         style="stroke-width:0.0222568" />
      <path
         d="m 38.181347,72.887658 c 0.122502,0.01843 0.779499,0.04948 0.779499,0.04948 l 0.107277,0.278721 c 0,0 -0.573712,-0.01505 -0.886776,-0.328198"
         fill="#003660"
         id="path96"
         style="stroke-width:0.0222568" />
      <path
         d="m 40.870675,70.889336 c -0.205541,-0.13285 -0.454794,-0.03078 -0.724836,-0.257177 9.57e-4,0.70318 0.513041,0.844199 0.225016,1.031823 -0.256999,0.167883 -0.505651,0.209614 -0.763963,0.188137 0.02192,-0.03512 0.0606,-0.09911 0.09147,-0.130848 -0.316646,-0.04077 -0.592586,-0.01792 -0.708387,-0.0044 -0.394101,-0.115802 -0.831335,-0.26194 -1.35784,-0.26993 0.09564,0.07796 0.189605,0.213086 0.189605,0.446092 -0.07988,-0.314644 -0.407045,-0.478965 -0.567625,-0.54164 -0.04808,-0.01818 -0.09303,-0.02662 -0.139886,-0.03425 -0.02356,0.03207 -0.07433,0.08616 -0.159623,0.118049 -0.04869,-0.02591 -0.08842,0.02016 -0.08172,0.0353 0.0027,0.0075 0.0017,0.01496 -0.0041,0.02252 -0.04703,0.06094 -0.201441,0.03189 -0.316202,-0.008 -0.132323,-0.04563 -0.127019,0.04556 -0.101372,0.09121 0.04147,0.07347 0.08172,0.121188 0.101286,0.161985 0.175879,0.359046 0.306117,0.594834 0.695957,0.817757 0.37045,0.273335 0.836017,0.414265 1.309752,0.430357 0.172846,0.0619 0.569817,0.171355 1.067545,0.09181 -0.09677,-0.06512 -0.193433,-0.129468 -0.225528,-0.194057 0.632582,-0.18275 1.179363,-0.598328 1.403133,-1.225612 0.0026,-0.0068 0.005,-0.01373 0.0074,-0.02059 0.04008,-0.137368 -0.09292,-0.319851 -0.281949,-0.139883 0.163721,-0.393411 0.43463,-0.223102 0.377252,0.0095 0.216046,-0.291074 0.505206,-0.603803 0.891227,-0.722476 -0.352725,-0.162564 -0.699017,-0.02163 -0.926615,0.10425"
         fill="#99dbf9"
         id="path98"
         style="stroke-width:0.0222568" />
      <path
         d="m 38.955816,70.275873 c 0.0146,-0.05181 0.02068,-0.178744 0,-0.217693 -0.102871,0 -0.26223,0.0013 -0.354818,-0.0016 0.212397,0.07772 0.354818,0.219251 0.354818,0.219251"
         fill="#003660"
         id="path100"
         style="stroke-width:0.0222568" />
      <path
         d="m 39.105158,69.861697 c 0,0.11302 -0.09259,0.204317 -0.206565,0.204317 h -0.351144 c -0.113977,0 -0.206565,-0.0913 -0.206565,-0.204317 0,-0.112596 0.09259,-0.203359 0.206565,-0.203359 h 0.351144 c 0.113977,0 0.206565,0.09076 0.206565,0.203359"
         fill="#ffcf37"
         id="path102"
         style="stroke-width:0.0222568" />
      <path
         d="m 38.892784,69.99664 c -0.205964,0.0022 -0.382994,0 -0.382994,0 0,0 0.29005,-0.01741 0.474091,-0.213709 0.04825,0.03216 0.05731,0.213086 -0.0911,0.213709"
         fill="#e2a035"
         id="path104"
         style="stroke-width:0.0222568" />
      <path
         d="m 38.959288,71.582589 c 0.01442,-0.05112 0.02025,-0.178744 0,-0.217693 -0.102938,0 -0.261873,0.0013 -0.354973,-0.0016 0.212552,0.0779 0.354973,0.21934 0.354973,0.21934"
         fill="#003660"
         id="path106"
         style="stroke-width:0.0222568" />
      <path
         d="m 39.108029,71.162404 c 0,0.113042 -0.09241,0.204228 -0.206386,0.204228 h -0.351145 c -0.114066,0 -0.206231,-0.09119 -0.206231,-0.204228 0,-0.112663 0.09216,-0.202826 0.206231,-0.202826 h 0.351145 c 0.113976,0 0.206386,0.09016 0.206386,0.202826"
         fill="#ffcf37"
         id="path108"
         style="stroke-width:0.0222568" />
      <path
         d="m 38.895388,71.297258 c -0.206231,0.002 -0.382638,-2.67e-4 -0.382638,-2.67e-4 0,0 0.289516,-0.01607 0.473735,-0.213687 0.04834,0.03267 0.05773,0.213086 -0.0911,0.213954"
         fill="#e2a035"
         id="path110"
         style="stroke-width:0.0222568" />
      <path
         d="m 38.415043,68.242074 h 0.620841 v -0.609452 h -0.620841 z"
         fill="#ffcf37"
         id="path112"
         style="stroke-width:0.0222568" />
      <path
         d="m 39.035873,68.241206 c -0.105452,0.02548 -0.09857,0.113732 -0.102492,0.14616 0,0 -0.2503,0.0017 -0.41471,0 0.0013,-0.0094 0.0051,-0.130158 -0.103628,-0.14616 0,0 0.580924,5.34e-4 0.62083,0"
         fill="#e2a035"
         id="path114"
         style="stroke-width:0.0222568" />
      <path
         d="m 38.777583,68.24973 h 0.168143 v -0.617104 h -0.168143 z"
         fill="#e2a035"
         id="path116"
         style="stroke-width:0.0222568" />
      <path
         d="m 36.758907,71.42194 c -0.03112,-0.01175 -0.04799,-0.03817 -0.05642,-0.05818 -0.02008,-0.04442 -0.01947,-0.103894 0.0023,-0.160137 0.02156,-0.0552 0.06086,-0.100334 0.106417,-0.12032 0.01965,-0.0086 0.0499,-0.01618 0.08077,-0.0045 0.04573,0.01834 0.07173,0.06929 0.07173,0.130491 0,0.02824 -0.0055,0.05834 -0.01687,0.08771 -0.02121,0.05573 -0.06121,0.1006 -0.106066,0.120943 -0.01991,0.0083 -0.0499,0.0166 -0.08181,0.004 z m 0.01913,-0.412551 c -0.06529,0.02862 -0.119977,0.08869 -0.149016,0.165012 -0.02991,0.07661 -0.02991,0.157199 -0.0012,0.22319 0.02087,0.0473 0.05721,0.08337 0.102067,0.100846 0.04434,0.01696 0.09563,0.01442 0.143454,-0.0067 0.06538,-0.02824 0.11989,-0.08885 0.149536,-0.164566 0.05303,-0.137102 0.007,-0.281704 -0.101199,-0.323947 -0.04477,-0.01774 -0.09581,-0.01547 -0.143625,0.0062"
         fill="#ffcf37"
         id="path118"
         style="stroke-width:0.0222568" />
      <path
         d="m 36.870104,71.400195 c -0.03512,-0.01122 -0.121281,-0.03643 -0.225176,-0.03973 -0.07364,-0.0024 -0.145363,-0.04487 -0.141103,-0.0665 0.0041,-0.01567 0.02321,-0.02366 0.05408,-0.02809 0.07112,-0.01 0.225176,-0.0017 0.391492,0.02522 -0.01391,0.04006 -0.03651,0.07719 -0.07929,0.109102"
         fill="#99dbf9"
         id="path120"
         style="stroke-width:0.0222568" />
      <path
         d="m 37.132057,66.45154 c -0.0026,0.30977 -0.239696,0.407321 -0.307944,0.425149 0.0226,-0.06868 0.119283,-0.389938 0.307944,-0.425149"
         fill="#ef402d"
         id="path122"
         style="stroke-width:0.0222568" />
      <path
         d="m 39.110211,68.567579 c 0,0.113042 -0.09208,0.20494 -0.206743,0.20494 h -0.350722 c -0.1144,0 -0.206565,-0.0919 -0.206565,-0.20494 0,-0.112063 0.09216,-0.203249 0.206565,-0.203249 h 0.350722 c 0.114666,0 0.206743,0.09119 0.206743,0.203249"
         fill="#ffcf37"
         id="path124"
         style="stroke-width:0.0222568" />
      <path
         d="m 38.898171,68.702521 c -0.206321,0.0023 -0.383418,-8.9e-5 -0.383418,-8.9e-5 0,0 0.290028,-0.01738 0.474359,-0.213954 0.04825,0.03294 0.05738,0.213353 -0.09094,0.214043"
         fill="#e2a035"
         id="path126"
         style="stroke-width:0.0222568" />
      <path
         d="m 37.522503,71.523208 c 0.223792,0.149632 0.299242,0.369863 0.299242,0.369863 0,0 0.07443,-0.18433 -0.02738,-0.327263 0.203516,-0.0592 0.55702,0.03339 0.876093,0.158245 0.468081,0.183351 0.81838,0.24429 1.175,0.183351 0.356286,-0.06052 0.544089,-0.134675 0.658845,-0.312462 0.06085,-0.09519 0.240996,-0.07494 0.190317,0.06755 -0.05095,0.142844 -0.271955,0.550254 -0.689625,0.662739 -0.417737,0.111729 -1.106918,0.298998 -2.126121,0.04382 -0.272645,-0.06824 -0.913225,-0.238303 -1.174916,-0.57458 -0.05243,-0.06746 -0.06616,-0.192922 -0.0686,-0.212753 -0.003,-0.02435 0.01295,-0.03686 0.07016,-0.02695 0.179618,0.03156 0.213787,-0.03703 0.28047,-0.112574 0.07364,-0.0097 0.332634,-0.0546 0.536506,0.08101"
         fill="#ffffff"
         id="path128"
         style="stroke-width:0.0222568" />
      <path
         d="m 40.619663,71.633624 c -0.311416,0.592341 -0.913728,0.684217 -1.544151,0.703358 -0.255596,0.0071 -0.511104,-0.02471 -0.730889,-0.08095 0.185176,0.01878 0.376962,0.0039 0.493988,-0.03677 -0.04565,-0.237524 -0.451055,-0.409925 -0.733782,-0.425327 -0.05373,-0.06112 -0.06902,-0.140306 -0.199087,-0.1864 0.09181,0.084 0.08433,0.201802 0.130068,0.262563 0.231248,0.04705 0.513642,0.106165 0.649697,0.288047 -0.04807,0.06154 -0.466434,0.02729 -0.694833,-0.0247 -0.09842,-0.03617 -0.200912,-0.09555 -0.255419,-0.201958 -0.108946,0.1219 -0.282042,0.07817 -0.460007,-0.01059 -0.0025,-0.06913 -0.04504,-0.129824 -0.136932,-0.147629 0.01982,0.03025 0.02504,0.06163 0.0253,0.0872 -0.201179,-0.115735 -0.392709,-0.257444 -0.488952,-0.250055 -0.136496,0.01026 0.297858,0.772465 0.664747,0.853591 1.089633,0.628152 2.910413,0.352369 3.341905,-0.707965 0.06076,-0.153015 0.0071,-0.252391 -0.06165,-0.122412"
         fill="#0c9ad7"
         id="path130"
         style="stroke-width:0.0222568" />
      <path
         d="m 37.178222,71.850205 c 0.0062,0.06624 -0.04608,0.126062 -0.116761,0.13285 -0.07042,0.0082 -0.133106,-0.04086 -0.139801,-0.107723 -0.0064,-0.06686 0.04547,-0.126685 0.116067,-0.13354 0.07068,-0.0069 0.133366,0.04146 0.140495,0.108413"
         fill="#ffffff"
         id="path132"
         style="stroke-width:0.0222568" />
      <path
         d="m 37.116669,71.862802 c 0,0.03287 -0.03017,0.05896 -0.06738,0.05896 -0.03643,0 -0.06651,-0.02609 -0.06651,-0.05896 0,-0.03269 0.03008,-0.05956 0.06651,-0.05956 0.03721,0 0.06738,0.02686 0.06738,0.05956"
         fill="#003660"
         id="path134"
         style="stroke-width:0.0222568" />
      <path
         d="m 40.239385,70.77665 c -0.07485,0.257867 0.244579,0.605807 0.244579,0.605807 0,0 -0.144491,-0.4513 -0.244579,-0.605807"
         fill="#ffffff"
         id="path136"
         style="stroke-width:0.0222568" />
      <path
         d="m 40.463532,70.832047 c -0.109815,0.150834 0.09668,0.494768 0.09668,0.494768 0,0 -0.0114,-0.274893 -0.09668,-0.494768"
         fill="#ffffff"
         id="path138"
         style="stroke-width:0.0222568" />
      <path
         d="m 40.809469,71.224567 c 0.08694,-0.188559 0.260382,-0.376873 0.444,-0.443465 -0.382616,0.04625 -0.469039,0.300555 -0.444,0.443465"
         fill="#ffffff"
         id="path140"
         style="stroke-width:0.0222568" />
      <path
         d="m 38.725325,65.506586 c -0.161362,-0.312641 -0.392009,-0.0718 -0.796191,-0.196906 -0.07138,0.330713 -0.142844,0.922431 -0.163031,1.024145 0.276051,0.08304 0.51905,-0.175183 0.848806,0.03991 -0.03539,-0.426617 0.102247,-0.782036 0.102247,-0.782036 0,0 0.0042,-0.05215 0.0082,-0.08511"
         fill="#ffffff"
         id="path142"
         style="stroke-width:0.0222568" />
      <path
         d="m 38.72646,65.505451 c -0.03209,-0.05546 -0.06276,-0.102493 -0.116158,-0.132829 -0.04756,0.50781 -0.05947,0.618048 -0.220743,0.916266 0.100334,0.01269 0.174226,0.04972 0.225884,0.08616 -0.03601,-0.427396 0.110572,-0.762984 0.110572,-0.762984 0,0 -6.9e-4,-0.0886 4.45e-4,-0.106609"
         fill="#99dbf9"
         id="path144"
         style="stroke-width:0.0222568" />
      <path
         d="m 39.522739,65.308189 c -0.404093,0.125105 -0.635363,-0.115624 -0.796279,0.197262 -4.45e-4,0.106609 -7.79e-4,0.894877 6.01e-4,0.953746 0.387579,-0.362028 0.653458,-0.03512 0.958776,-0.126841 -0.02043,-0.101736 -0.09181,-0.693187 -0.163098,-1.024167"
         fill="#ffffff"
         id="path146"
         style="stroke-width:0.0222568" />
      <path
         d="m 38.613863,67.301726 h 0.224742 V 67.04047 h -0.224742 z"
         fill="#ffcf37"
         id="path148"
         style="stroke-width:0.0222568" />
      <path
         d="m 38.727595,66.790088 0.111884,0.19537 -0.226729,0.0011 0.114845,-0.196483"
         fill="#ffcf37"
         id="path150"
         style="stroke-width:0.0222568" />
      <path
         d="m 36.836632,67.561685 v -0.0016 c -0.0018,-6.9e-4 -0.0017,2.67e-4 0,0.0016"
         fill="#009349"
         id="path152"
         style="stroke-width:0.0222568" />
      <path
         d="m 37.740998,68.841537 c 0,0 0.308278,-0.152147 0.338792,-0.308723 -0.09537,-0.09163 -0.336366,-0.101714 -0.336366,-0.101714 0,0 0.276718,-0.210749 0.265077,-0.363675 -0.138236,-0.06434 -0.384285,-0.02677 -0.384285,-0.02677 0.114244,-0.158156 0.146761,-0.283684 0.142332,-0.3941 -0.14389,-0.02393 -0.365932,0.0613 -0.365932,0.0613 0,0 0.07442,-0.265345 0.0012,-0.402892 -0.133017,-0.03565 -0.320722,0.198931 -0.320722,0.198931 0,0 -0.06677,-0.29005 -0.22248,-0.444356 -0.156145,0.154306 -0.224655,0.444356 -0.224655,0.444356 0,0 -0.187356,-0.234586 -0.32107,-0.198931 -0.07233,0.137547 0.0018,0.402892 0.0018,0.402892 0,0 -0.222046,-0.08522 -0.366628,-0.0613 -0.0038,0.110416 0.02886,0.235944 0.143017,0.3941 0,0 -0.246649,-0.03757 -0.384189,0.02677 -0.01165,0.152926 0.264906,0.363675 0.264906,0.363675 0,0 -0.241345,0.01008 -0.33637,0.101714 0.03069,0.156576 0.339152,0.308723 0.339152,0.308723 0,0 -0.183705,0.03773 -0.295683,0.164745 0.07138,0.09486 0.232131,0.185532 0.357846,0.20632 -0.108675,0.08756 -0.169534,0.155886 -0.197005,0.20701 0.176574,0.142665 0.546681,0.16283 0.916786,0.04754 0,0.07087 0.0011,0.642063 -0.08555,0.903758 h 0.373061 c -0.08633,-0.261695 -0.08537,-0.832892 -0.08537,-0.903758 0.370106,0.11529 0.740725,0.09512 0.916709,-0.04754 -0.02782,-0.05112 -0.088,-0.119452 -0.196416,-0.20701 0.125551,-0.02079 0.285866,-0.111462 0.357332,-0.20632 -0.112329,-0.12702 -0.295324,-0.164745 -0.295324,-0.164745"
         fill="#7fc342"
         id="path154"
         style="stroke-width:0.0222568" />
      <path
         d="m 37.403832,68.851708 c 0.03478,-0.01921 0.213863,-0.0738 0.305427,-0.233517 -0.09156,-0.08876 -0.305427,-0.09208 -0.305427,-0.09208 0,0 0.190316,-0.125283 0.254638,-0.312818 -0.163187,-0.04745 -0.33271,0 -0.33271,0 0,0 0.139105,-0.197173 0.156231,-0.363408 -0.156231,0.01705 -0.322549,0.09929 -0.322549,0.09929 0.04721,-0.10267 0.07103,-0.24794 0.05069,-0.37427 -0.07807,0.01538 -0.149192,0.104496 -0.191965,0.15996 -0.03965,-0.126485 -0.106937,-0.166303 -0.152928,-0.191876 -0.07616,0.111907 -0.09137,0.184397 -0.0819,0.337591 0.02573,-0.02537 0.06642,-0.06581 0.13293,-0.103984 0.04043,0.218673 -0.03738,0.377764 -0.03738,0.377764 0,0 0.09624,-0.06285 0.223783,-0.07781 0.0053,0.120409 -0.03895,0.245604 -0.166229,0.393322 0,0 0.111978,-0.06755 0.241434,-0.0779 -0.02069,0.169975 -0.1245,0.283506 -0.231524,0.380546 0.07138,-0.03356 0.193877,-0.03045 0.278644,-0.0031 -0.0439,0.129022 -0.144669,0.193878 -0.291684,0.274737 0.09111,0 0.184747,0.01208 0.237259,0.04745 -0.05912,0.110683 -0.20344,0.163276 -0.303508,0.191898 0.231087,0.08807 0.454959,0.124838 0.674226,0.07162 -0.01531,-0.06528 -0.09842,-0.144669 -0.195359,-0.20031 0.08859,-0.02025 0.220754,-0.04781 0.336378,-0.146494 -0.07478,-0.07476 -0.166592,-0.125439 -0.278475,-0.156577"
         fill="#00984c"
         id="path156"
         style="stroke-width:0.0222568" />
      <path
         d="m 36.165193,73.860087 c 0.05242,0.174751 -0.08738,0.513122 0.012,0.708478 -0.08477,-0.0029 -0.624057,0.09572 -0.703608,0.02591 -0.07868,-0.06964 -0.288382,-0.218568 -0.07868,-0.332721 0.210135,-0.113368 0.741168,-0.317591 0.770293,-0.401664"
         fill="#99dbf9"
         id="path158"
         style="stroke-width:0.0222568" />
      <path
         d="m 41.311626,73.842266 c 0.06174,0.559981 -0.03225,0.622925 -0.02651,0.783766 0.05268,0.01365 0.48148,0.102764 0.632915,0.02156 0.151546,-0.0819 0.256487,-0.280121 0.1864,-0.361672 -0.06989,-0.08198 -0.419384,-0.303508 -0.559289,-0.326632 -0.139973,-0.024 -0.195348,-0.07564 -0.233518,-0.117022"
         fill="#99dbf9"
         id="path160"
         style="stroke-width:0.0222568" />
      <path
         d="m 41.981064,74.112476 c -0.232917,-0.12502 -0.578831,-0.200484 -0.774201,-0.467652 -0.07347,0.268906 0.104429,0.423486 0.09728,0.819239 0.164767,-0.307334 0.02914,-0.3828 0.05695,-0.528597 0.132584,0.169011 0.331403,0.193442 0.470263,0.265602 0.177097,0.09276 0.285688,0.297248 -0.08095,0.295944 -0.716045,-0.0015 -5.311278,9.57e-4 -6.043055,9.57e-4 -0.378451,0 -0.267689,-0.203093 -0.09042,-0.295599 0.139018,-0.07225 0.340199,-0.09668 0.472348,-0.270383 0.02765,0.14554 -0.109459,0.22022 0.0559,0.527727 -0.0074,-0.395838 0.168838,-0.543722 0.09894,-0.81489 -0.195267,0.267168 -0.546681,0.342632 -0.780029,0.467652 -0.198224,0.105372 -0.198659,0.175792 -0.198659,0.515381 0,0.227524 0.0011,0.514948 -9.56e-4,0.707348 -0.0013,0.135366 0.156058,0.215352 0.343849,0.210048 0.860798,0 5.367611,0 6.228681,0 0.187357,0.0053 0.347138,-0.07277 0.347138,-0.207961 0.0011,-0.193094 -0.002,-0.483825 0,-0.71126 0.0029,-0.349066 -0.005,-0.408184 -0.203093,-0.513556"
         fill="#003660"
         id="path162"
         style="stroke-width:0.0222568" />
      <path
         d="m 35.611467,74.791306 h 0.133367 l 0.09268,0.258125 c 0.002,0.0053 0.0071,0.02617 0.01504,0.06182 0.0089,-0.03565 0.01434,-0.05651 0.0166,-0.06182 l 0.09077,-0.258125 h 0.133974 l -0.193095,0.461305 h -0.09555 l -0.193792,-0.461305"
         fill="#ffffff"
         id="path164"
         style="stroke-width:0.0222568" />
      <path
         d="M 36.166582,75.252611 H 36.29421 V 74.791304 H 36.166582 Z"
         fill="#ffffff"
         id="path166"
         style="stroke-width:0.0222568" />
      <path
         d="m 36.674316,75.081078 -0.04686,-0.152494 c -0.0021,-0.0077 -0.0077,-0.02817 -0.01582,-0.06225 -0.0083,0.03408 -0.014,0.0546 -0.01608,0.06225 l -0.04642,0.152494 z m -0.141887,-0.289772 h 0.157449 l 0.159187,0.461305 h -0.125281 l -0.02286,-0.08294 h -0.178577 l -0.02426,0.08294 h -0.12476 l 0.159102,-0.461305"
         fill="#ffffff"
         id="path168"
         style="stroke-width:0.0222568" />
      <path
         d="m 37.097802,74.791306 h 0.133714 l 0.09216,0.258125 c 0.0022,0.0053 0.0069,0.02617 0.01556,0.06182 0.0082,-0.03565 0.014,-0.05651 0.01591,-0.06182 l 0.09164,-0.258125 h 0.133367 l -0.193355,0.461305 h -0.09529 l -0.193703,-0.461305"
         fill="#ffffff"
         id="path170"
         style="stroke-width:0.0222568" />
      <path
         d="m 37.649789,74.791306 h 0.282639 v 0.101373 h -0.160226 v 0.08024 h 0.151012 v 0.09842 h -0.151012 v 0.07816 h 0.160226 v 0.103111 h -0.282639 v -0.461305"
         fill="#ffffff"
         id="path172"
         style="stroke-width:0.0222568" />
      <path
         d="m 38.18907,75.00944 c 0.05253,0 0.07781,-0.01652 0.07781,-0.05738 0,-0.04808 -0.02381,-0.06347 -0.07598,-0.06347 h -0.02528 v 0.120847 z m -0.141619,-0.218134 h 0.131715 c 0.0027,0 0.0051,0 0.0077,0 0.06372,0 0.113019,6.95e-4 0.152659,0.03095 0.03296,0.02591 0.05094,0.06512 0.05094,0.113459 0,0.07112 -0.03572,0.116674 -0.102848,0.131279 l 0.125728,0.185617 H 38.271369 L 38.165612,75.07195 v 0.180661 h -0.118161 v -0.461305"
         fill="#ffffff"
         id="path174"
         style="stroke-width:0.0222568" />
      <path
         d="m 38.496414,75.252611 h 0.127107 v -0.461307 h -0.127107 z"
         fill="#ffffff"
         id="path176"
         style="stroke-width:0.0222568" />
      <path
         d="m 38.823388,74.900415 h -0.102582 v -0.109109 h 0.331515 v 0.109109 h -0.103294 v 0.352196 h -0.125639 v -0.352196"
         fill="#ffffff"
         id="path178"
         style="stroke-width:0.0222568" />
      <path
         d="m 39.392671,75.081078 -0.04721,-0.152494 c -0.0021,-0.0077 -0.0069,-0.02817 -0.01547,-0.06225 -0.0081,0.03408 -0.01409,0.0546 -0.01643,0.06225 l -0.04609,0.152494 z m -0.141887,-0.289772 h 0.156844 l 0.159447,0.461305 h -0.12466 l -0.02357,-0.08294 h -0.178299 l -0.02384,0.08294 h -0.125439 l 0.159514,-0.461305"
         fill="#ffffff"
         id="path180"
         style="stroke-width:0.0222568" />
      <path
         d="m 39.773818,75.166542 c 0.03452,0 0.05749,-0.02009 0.05749,-0.04738 0,-0.03678 -0.02522,-0.04782 -0.07774,-0.06164 -0.08268,-0.02139 -0.123369,-0.05486 -0.123369,-0.127019 0,-0.08581 0.06234,-0.149626 0.159358,-0.149626 0.05148,0 0.09635,0.01313 0.136078,0.04095 l -0.0393,0.08998 c -0.02878,-0.02443 -0.05956,-0.03651 -0.08816,-0.03651 -0.03087,0 -0.05112,0.01678 -0.05112,0.03851 0,0.03313 0.03209,0.04034 0.07365,0.05138 0.08164,0.02173 0.127286,0.05182 0.127286,0.137366 0,0.09529 -0.06868,0.16249 -0.176852,0.16249 -0.06495,0 -0.1144,-0.02104 -0.16361,-0.06781 l 0.0566,-0.09346 c 0.03695,0.04191 0.07311,0.06277 0.109704,0.06277"
         fill="#ffffff"
         id="path182"
         style="stroke-width:0.0222568" />
      <path
         d="m 40.22287,74.791306 h 0.13363 l 0.09234,0.258125 c 0.0017,0.0053 0.0071,0.02617 0.01502,0.06182 0.0087,-0.03565 0.01418,-0.05651 0.01618,-0.06182 l 0.09163,-0.258125 h 0.133807 l -0.193522,0.461305 h -0.09539 l -0.193701,-0.461305"
         fill="#ffffff"
         id="path184"
         style="stroke-width:0.0222568" />
      <path
         d="m 40.778154,75.252611 h 0.127107 v -0.461307 h -0.127107 z"
         fill="#ffffff"
         id="path186"
         style="stroke-width:0.0222568" />
      <path
         d="m 41.10515,74.900415 h -0.102426 v -0.109109 h 0.331426 v 0.109109 h -0.103472 v 0.352196 H 41.10515 v -0.352196"
         fill="#ffffff"
         id="path188"
         style="stroke-width:0.0222568" />
      <path
         d="m 41.674255,75.081078 -0.0473,-0.152494 c -0.0018,-0.0077 -0.0066,-0.02817 -0.01487,-0.06225 -0.0089,0.03408 -0.01433,0.0546 -0.01634,0.06225 l -0.04607,0.152494 z m -0.141798,-0.289772 h 0.157355 l 0.159203,0.461305 h -0.125194 l -0.02304,-0.08294 h -0.17841 l -0.02435,0.08294 h -0.124838 l 0.159269,-0.461305"
         fill="#ffffff"
         id="path190"
         style="stroke-width:0.0222568" />
      <path
         d="m 38.976314,73.348531 c 0.03054,0.03643 0.05139,0.207179 -0.09675,0.219349 -0.254907,0.01991 -0.377497,-0.0055 -0.377497,-0.0055 0,0 0.341842,-0.04017 0.474247,-0.213872"
         fill="#e2a035"
         id="path192"
         style="stroke-width:0.0222568" />
      <path
         d="m 40.125764,68.113074 c 0.01556,-0.209103 0.114333,-0.257867 0.249876,-0.25484 0.07605,0.0018 0.191008,0.0029 0.469551,7.12e-4 -0.156843,0.01391 -0.352458,0.09633 -0.377831,0.300377 -0.02384,0.189516 -0.02531,0.846001 -0.03,1.12588 -0.137635,0.0051 -0.321676,2.45e-4 -0.362362,0.01068 0.02008,-0.290562 0.03546,-0.973732 0.05077,-1.182812"
         fill="#e2a035"
         id="path194"
         style="stroke-width:0.0222568" />
      <path
         d="m 38.728552,67.301726 h 0.06825 V 67.04047 h -0.06825 z"
         fill="#e2a035"
         id="path196"
         style="stroke-width:0.0222568" />
      <path
         d="m 38.796791,66.986571 -0.0692,-0.196483 v 0.19537 l 0.0692,0.0011"
         fill="#e2a035"
         id="path198"
         style="stroke-width:0.0222568" />
      <path
         stroke-width="0.111284"
         stroke-linecap="butt"
         stroke-miterlimit="4"
         stroke-linejoin="miter"
         fill="none"
         stroke="#003660"
         d="m 71.403664,66.411033 v 7.602679"
         id="path200" />
      <path
         d="m 73.639354,68.570205 c 0,0.500777 0.323613,0.79332 0.890715,0.79332 0.505229,0 0.793454,-0.243779 0.793454,-0.629354 0,-0.412195 -0.221678,-0.540773 -0.740037,-0.673712 l -0.301357,-0.0753 c -0.58513,-0.150745 -0.868903,-0.345669 -0.868903,-0.864274 0,-0.505206 0.399063,-0.855394 1.046067,-0.855394 0.66926,0 1.06365,0.359068 1.072553,0.970684 h -0.301357 c -0.0044,-0.456531 -0.288225,-0.709078 -0.78455,-0.709078 -0.469617,0 -0.731134,0.221611 -0.731134,0.602668 0,0.301424 0.163809,0.452013 0.536165,0.545113 l 0.372355,0.09303 c 0.691295,0.172913 1.001554,0.407744 1.001554,0.935206 0,0.567303 -0.416646,0.92183 -1.099038,0.92183 -0.762294,0 -1.187843,-0.372266 -1.187843,-1.032579 v -0.02217 h 0.301356"
         fill="#003660"
         id="path202"
         style="stroke-width:0.0222568" />
      <path
         d="m 77.96896,68.74294 c -0.04874,0.527485 -0.412195,0.850987 -0.957263,0.850987 -0.611615,0 -1.006005,-0.443221 -1.006005,-1.192228 0,-0.771152 0.398841,-1.223253 1.02381,-1.223253 0.51836,0 0.881813,0.319162 0.908521,0.788913 h -0.257065 c -0.04429,-0.336812 -0.305808,-0.553904 -0.651456,-0.553904 -0.443354,0 -0.749162,0.350099 -0.749162,0.966076 0,0.624925 0.305808,0.979476 0.753391,0.979476 0.354773,0 0.611616,-0.225951 0.669261,-0.616067 h 0.265968"
         fill="#003660"
         id="path204"
         style="stroke-width:0.0222568" />
      <path
         d="m 78.407418,66.349738 h 0.265968 v 1.245421 c 0.172713,-0.274826 0.429778,-0.416713 0.762294,-0.416713 0.310037,0 0.562873,0.12417 0.686843,0.323591 0.09303,0.150678 0.09303,0.35455 0.09303,0.633716 v 1.400529 h -0.265968 v -1.396011 c 0,-0.491985 -0.08413,-0.726816 -0.567102,-0.726816 -0.421098,0 -0.709101,0.292476 -0.709101,0.766723 v 1.356104 h -0.265968 v -3.186544"
         fill="#003660"
         id="path206"
         style="stroke-width:0.0222568" />
      <path
         d="m 81.74415,69.359007 c 0.492097,0 0.784551,-0.341152 0.784551,-0.970506 0,-0.629376 -0.292454,-0.975046 -0.784551,-0.975046 -0.487423,0 -0.779876,0.34567 -0.779876,0.975046 0,0.629354 0.292453,0.970506 0.779876,0.970506 z m 0,-2.180561 c 0.669261,0 1.059422,0.438881 1.059422,1.210055 0,0.771152 -0.390161,1.205426 -1.059422,1.205426 -0.669038,0 -1.054747,-0.434274 -1.054747,-1.205426 0,-0.771174 0.385709,-1.210055 1.054747,-1.210055"
         fill="#003660"
         id="path208"
         style="stroke-width:0.0222568" />
      <path
         d="m 84.216875,69.359007 c 0.492097,0 0.784551,-0.341152 0.784551,-0.970506 0,-0.629376 -0.292454,-0.975046 -0.784551,-0.975046 -0.487423,0 -0.780099,0.34567 -0.780099,0.975046 0,0.629354 0.292676,0.970506 0.780099,0.970506 z m 0,-2.180561 c 0.669261,0 1.059422,0.438881 1.059422,1.210055 0,0.771152 -0.390161,1.205426 -1.059422,1.205426 -0.669038,0 -1.054747,-0.434274 -1.054747,-1.205426 0,-0.771174 0.385709,-1.210055 1.054747,-1.210055"
         fill="#003660"
         id="path210"
         style="stroke-width:0.0222568" />
      <path
         d="m 85.776628,69.536282 h 0.265953 v -3.186544 h -0.265953 z"
         fill="#003660"
         id="path212"
         style="stroke-width:0.0222568" />
      <path
         d="m 88.78129,69.359007 c 0.491874,0 0.784327,-0.341152 0.784327,-0.970506 0,-0.629376 -0.292453,-0.975046 -0.784327,-0.975046 -0.487646,0 -0.7801,0.34567 -0.7801,0.975046 0,0.629354 0.292454,0.970506 0.7801,0.970506 z m 0,-2.180561 c 0.669037,0 1.059198,0.438881 1.059198,1.210055 0,0.771152 -0.390161,1.205426 -1.059198,1.205426 -0.669261,0 -1.05497,-0.434274 -1.05497,-1.205426 0,-0.771174 0.385709,-1.210055 1.05497,-1.210055"
         fill="#003660"
         id="path214"
         style="stroke-width:0.0222568" />
      <path
         d="M 90.442756,67.453272 H 90.106011 V 67.23618 h 0.336745 v -0.421142 c 0,-0.35001 0.172935,-0.496259 0.54529,-0.496259 0.04429,0 0.08858,0.0045 0.137324,0.01322 v 0.23935 c -0.05765,-0.0043 -0.106387,-0.01774 -0.146226,-0.01774 -0.203872,0 -0.27042,0.08424 -0.27042,0.288136 v 0.394434 h 0.416646 v 0.217092 h -0.416646 v 2.08301 h -0.265968 v -2.08301"
         fill="#003660"
         id="path216"
         style="stroke-width:0.0222568" />
      <path
         d="m 76.014817,72.926096 c -0.04874,0.704818 -0.518359,1.130215 -1.271973,1.130215 -0.846424,0 -1.387041,-0.624927 -1.387041,-1.688548 0,-1.054859 0.549519,-1.670926 1.395944,-1.670926 0.726905,0 1.200974,0.403404 1.232133,1.014953 h -0.288002 c -0.04896,-0.465389 -0.407744,-0.753347 -0.944131,-0.753347 -0.677941,0 -1.094587,0.496259 -1.094587,1.404869 0,0.917401 0.429778,1.431572 1.103489,1.431572 0.567325,0 0.926326,-0.32368 0.966166,-0.868788 h 0.288002"
         fill="#003660"
         id="path218"
         style="stroke-width:0.0222568" />
      <path
         d="m 77.45928,73.790448 c 0.491875,0 0.784329,-0.341241 0.784329,-0.970606 0,-0.629354 -0.292454,-0.975024 -0.784329,-0.975024 -0.487422,0 -0.780099,0.34567 -0.780099,0.975024 0,0.629365 0.292677,0.970606 0.780099,0.970606 z m 0,-2.180639 c 0.669261,0 1.0592,0.438881 1.0592,1.210033 0,0.771165 -0.389939,1.205432 -1.0592,1.205432 -0.66926,0 -1.054747,-0.434267 -1.054747,-1.205432 0,-0.771152 0.385487,-1.210033 1.054747,-1.210033"
         fill="#003660"
         id="path220"
         style="stroke-width:0.0222568" />
      <path
         d="m 78.992326,71.667543 h 0.248162 v 0.381147 c 0.15513,-0.283684 0.412418,-0.438881 0.731357,-0.438881 0.345648,0 0.580456,0.163966 0.655907,0.452079 0.155129,-0.296882 0.412195,-0.452079 0.740259,-0.452079 0.500777,0 0.744489,0.248208 0.744489,0.753503 v 1.604322 h -0.265969 v -1.582132 c 0,-0.372378 -0.132872,-0.540684 -0.487422,-0.540684 -0.412195,0 -0.673712,0.279167 -0.673712,0.682481 v 1.440335 h -0.265968 v -1.555536 c 0,-0.381146 -0.154907,-0.56728 -0.482972,-0.56728 -0.403292,0 -0.678163,0.283596 -0.678163,0.70022 v 1.422596 h -0.265968 v -2.300091"
         fill="#003660"
         id="path222"
         style="stroke-width:0.0222568" />
      <path
         d="m 83.729675,73.794884 c 0.491874,0 0.784328,-0.34133 0.784328,-0.975042 0,-0.629354 -0.292454,-0.975024 -0.784328,-0.975024 -0.492097,0 -0.775648,0.341241 -0.775648,0.975024 0,0.615976 0.292454,0.975042 0.775648,0.975042 z m -1.032713,-2.127341 h 0.265968 v 0.412084 c 0.177164,-0.319073 0.434229,-0.469818 0.806585,-0.469818 0.624969,0 1.019359,0.44765 1.019359,1.210033 0,0.766732 -0.403293,1.209866 -1.032491,1.209866 -0.354773,0 -0.611838,-0.150754 -0.793453,-0.460871 v 1.325059 h -0.265968 v -3.226353"
         fill="#003660"
         id="path224"
         style="stroke-width:0.0222568" />
      <path
         d="m 87.057727,73.967634 h -0.257288 v -0.367846 c -0.177164,0.292556 -0.425327,0.42992 -0.771197,0.42992 -0.522811,0 -0.779876,-0.274818 -0.779876,-0.815499 v -1.546666 h 0.265968 v 1.484592 c 0,0.438872 0.141776,0.642749 0.562873,0.642749 0.438681,0 0.713552,-0.292556 0.713552,-0.766808 v -1.360533 h 0.265968 v 2.300091"
         fill="#003660"
         id="path226"
         style="stroke-width:0.0222568" />
      <path
         d="m 88.005642,71.667543 h 0.425326 v 0.217182 h -0.425326 v 1.675159 c 0,0.16849 0.02203,0.248213 0.168483,0.248213 0.07078,0 0.154907,-0.02217 0.256843,-0.04434 v 0.21283 c -0.119518,0.03095 -0.225906,0.04869 -0.327842,0.04869 -0.296905,0 -0.363452,-0.150667 -0.363452,-0.46539 v -1.675159 h -0.314711 v -0.217182 h 0.314711 v -0.660402 h 0.265968 v 0.660402"
         fill="#003660"
         id="path228"
         style="stroke-width:0.0222568" />
      <path
         d="m 88.883003,71.667543 h 0.265968 v 2.300091 h -0.265968 z m 0,-0.886441 h 0.265968 v 0.398952 h -0.265968 v -0.398952"
         fill="#003660"
         id="path230"
         style="stroke-width:0.0222568" />
      <path
         d="m 89.769267,71.667543 h 0.257065 v 0.367749 c 0.172712,-0.283685 0.425549,-0.425483 0.762294,-0.425483 0.318939,0 0.567324,0.119719 0.691294,0.323502 0.08881,0.141887 0.09303,0.323591 0.09303,0.567369 v 1.466954 h -0.265969 v -1.435906 c 0,-0.465299 -0.101935,-0.68691 -0.571553,-0.68691 -0.421098,0 -0.70042,0.288114 -0.70042,0.766723 v 1.356093 h -0.265745 v -2.300091"
         fill="#003660"
         id="path232"
         style="stroke-width:0.0222568" />
      <path
         d="m 93.106221,73.794884 c 0.482972,0 0.779877,-0.345677 0.779877,-0.975042 0,-0.629354 -0.292454,-0.975024 -0.779877,-0.975024 -0.492097,0 -0.78455,0.341241 -0.78455,0.975024 0,0.620411 0.310259,0.975042 0.78455,0.975042 z m 1.023588,0.05312 c 0,0.70465 -0.372133,1.063627 -1.090136,1.063627 -0.545067,0 -0.890715,-0.265864 -0.921874,-0.673614 h 0.274871 c 0.02649,0.274733 0.252614,0.438789 0.642552,0.438789 0.553971,0 0.828842,-0.279253 0.828842,-0.820022 v -0.2836 c -0.181838,0.30577 -0.447806,0.456524 -0.797682,0.456524 -0.620519,0 -1.01936,-0.447657 -1.01936,-1.209866 0,-0.757954 0.407744,-1.210033 1.01936,-1.210033 0.354327,0 0.620295,0.150745 0.797682,0.45662 v -0.398886 h 0.265745 v 2.180461"
         fill="#003660"
         id="path234"
         style="stroke-width:0.0222568" />
      <path
         d="m 96.105986,73.001546 c 0,0.500782 0.323394,0.793338 0.890714,0.793338 0.50523,0 0.79345,-0.243783 0.79345,-0.629372 0,-0.412173 -0.22167,-0.54075 -0.74026,-0.67369 l -0.30135,-0.07529 c -0.585132,-0.150745 -0.868683,-0.34567 -0.868683,-0.864275 0,-0.505206 0.399064,-0.855416 1.046063,-0.855416 0.66904,0 1.06365,0.359069 1.07233,0.970706 h -0.30113 c -0.005,-0.45653 -0.28822,-0.7091 -0.78477,-0.7091 -0.4694,0 -0.731136,0.221611 -0.731136,0.602669 0,0.301423 0.164036,0.452012 0.536386,0.545134 l 0.37213,0.09301 c 0.69174,0.172935 1.00156,0.407766 1.00156,0.935229 0,0.567195 -0.41643,0.921825 -1.09882,0.921825 -0.762514,0 -1.18784,-0.372277 -1.18784,-1.032597 v -0.02217 h 0.301356"
         fill="#003660"
         id="path236"
         style="stroke-width:0.0222568" />
      <path
         d="m 100.43559,73.174303 c -0.0485,0.527378 -0.41197,0.850971 -0.95704,0.850971 -0.61161,0 -1.00645,-0.443223 -1.00645,-1.192211 0,-0.771175 0.39906,-1.223254 1.02381,-1.223254 0.51858,0 0.88204,0.319251 0.90852,0.788891 h -0.25684 c -0.0445,-0.336812 -0.30581,-0.553882 -0.65168,-0.553882 -0.44291,0 -0.74894,0.350099 -0.74894,0.966077 0,0.624923 0.30603,0.979553 0.75361,0.979553 0.35433,0 0.61162,-0.226044 0.66904,-0.616145 h 0.26597"
         fill="#003660"
         id="path238"
         style="stroke-width:0.0222568" />
      <path
         d="m 100.90076,71.667543 h 0.26574 v 2.300091 h -0.26574 z m 0,-0.886441 h 0.26574 v 0.398952 h -0.26574 v -0.398952"
         fill="#003660"
         id="path240"
         style="stroke-width:0.0222568" />
      <path
         d="m 103.38684,72.651359 c -0.022,-0.509658 -0.29691,-0.806541 -0.70888,-0.806541 -0.41264,0 -0.70465,0.301335 -0.73158,0.806541 z m -1.44046,0.230557 c 0,0.576072 0.30158,0.912968 0.74449,0.912968 0.35922,0 0.62074,-0.19953 0.67393,-0.536339 h 0.26597 c -0.0579,0.465393 -0.43,0.771163 -0.95771,0.771163 -0.62029,0 -1.00155,-0.438701 -1.00155,-1.201074 0,-0.775604 0.38571,-1.218825 1.01068,-1.218825 0.61161,0 0.97952,0.421143 0.97952,1.170127 v 0.0886 h -1.71533 v 0.01338"
         fill="#003660"
         id="path242"
         style="stroke-width:0.0222568" />
      <path
         d="m 104.13533,71.667543 h 0.25751 v 0.367749 c 0.17249,-0.283685 0.42511,-0.425483 0.76207,-0.425483 0.31894,0 0.5671,0.119719 0.69152,0.323502 0.0886,0.141887 0.093,0.323591 0.093,0.567369 v 1.466954 h -0.26597 v -1.435906 c 0,-0.465299 -0.10171,-0.68691 -0.57177,-0.68691 -0.4211,0 -0.7002,0.288114 -0.7002,0.766723 v 1.356093 h -0.26619 v -2.300091"
         fill="#003660"
         id="path244"
         style="stroke-width:0.0222568" />
      <path
         d="m 108.37213,73.174303 c -0.0487,0.527378 -0.4122,0.850971 -0.95727,0.850971 -0.61161,0 -1.006,-0.443223 -1.006,-1.192211 0,-0.771175 0.39862,-1.223254 1.02381,-1.223254 0.51858,0 0.88203,0.319251 0.90852,0.788891 h -0.25684 c -0.0445,-0.336812 -0.30603,-0.553882 -0.65168,-0.553882 -0.44336,0 -0.74894,0.350099 -0.74894,0.966077 0,0.624923 0.30558,0.979553 0.75317,0.979553 0.35477,0 0.61183,-0.226044 0.66948,-0.616145 h 0.26575"
         fill="#003660"
         id="path246"
         style="stroke-width:0.0222568" />
      <path
         d="m 110.4104,72.651359 c -0.0223,-0.509658 -0.29691,-0.806541 -0.7091,-0.806541 -0.41197,0 -0.70465,0.301335 -0.73114,0.806541 z m -1.44024,0.230557 c 0,0.576072 0.30136,0.912968 0.74472,0.912968 0.359,0 0.62029,-0.19953 0.67326,-0.536339 h 0.26619 c -0.0574,0.465393 -0.43,0.771163 -0.95726,0.771163 -0.6203,0 -1.00155,-0.438701 -1.00155,-1.201074 0,-0.775604 0.38548,-1.218825 1.01023,-1.218825 0.61162,0 0.9793,0.421143 0.9793,1.170127 v 0.0886 h -1.71489 v 0.01338"
         fill="#003660"
         id="path248"
         style="stroke-width:0.0222568" />
    </g>
  </g>
</svg>
